<?xml version="1.0" encoding="UTF-8" standalone="no"?>
<!-- Created with Inkscape (http://www.inkscape.org/) -->

<svg
   xmlns:dc="http://purl.org/dc/elements/1.1/"
   xmlns:cc="http://creativecommons.org/ns#"
   xmlns:rdf="http://www.w3.org/1999/02/22-rdf-syntax-ns#"
   xmlns:svg="http://www.w3.org/2000/svg"
   xmlns="http://www.w3.org/2000/svg"
   xmlns:sodipodi="http://sodipodi.sourceforge.net/DTD/sodipodi-0.dtd"
   xmlns:inkscape="http://www.inkscape.org/namespaces/inkscape"
   width="353.45834"
   height="226.31911"
   id="svg2"
   version="1.1"
   inkscape:version="0.48.4 r9939"
   sodipodi:docname="cloud.svg">
  <defs
     id="defs4" />
  <sodipodi:namedview
     id="base"
     pagecolor="#ffffff"
     bordercolor="#666666"
     borderopacity="1.0"
     inkscape:pageopacity="0.0"
     inkscape:pageshadow="2"
     inkscape:zoom="1.4"
     inkscape:cx="163.82435"
     inkscape:cy="148.35405"
     inkscape:document-units="px"
     inkscape:current-layer="layer1"
     showgrid="false"
     inkscape:window-width="1440"
     inkscape:window-height="878"
     inkscape:window-x="-8"
     inkscape:window-y="-8"
     inkscape:window-maximized="1"
     fit-margin-top="0"
     fit-margin-left="0"
     fit-margin-right="0"
     fit-margin-bottom="0" />
  <metadata
     id="metadata7">
    <rdf:RDF>
      <cc:Work
         rdf:about="">
        <dc:format>image/svg+xml</dc:format>
        <dc:type
           rdf:resource="http://purl.org/dc/dcmitype/StillImage" />
        <dc:title />
      </cc:Work>
    </rdf:RDF>
  </metadata>
  <g
     inkscape:label="Layer 1"
     inkscape:groupmode="layer"
     id="layer1"
     transform="translate(0.00557922,-825.62175)">
    <path
       sodipodi:type="arc"
       style="fill:#39275b;fill-opacity:1;stroke:#39275b;stroke-width:16;stroke-miterlimit:4;stroke-opacity:1;stroke-dasharray:none"
       id="path2985"
       sodipodi:cx="187.14285"
       sodipodi:cy="382.36218"
       sodipodi:rx="55.714287"
       sodipodi:ry="55.714287"
       d="m 242.85714,382.36218 c 0,30.77015 -24.94414,55.71429 -55.71429,55.71429 -30.77015,0 -55.71428,-24.94414 -55.71428,-55.71429 0,-30.77015 24.94413,-55.71428 55.71428,-55.71428 30.77015,0 55.71429,24.94413 55.71429,55.71428 z"
       transform="matrix(0.86267021,0.05772374,-0.04974125,1.0011118,-86.588724,592.80617)" />
    <path
       sodipodi:type="arc"
       style="fill:#39275b;fill-opacity:1;stroke:#39275b;stroke-width:16;stroke-miterlimit:4;stroke-opacity:1;stroke-dasharray:none"
       id="path2987"
       sodipodi:cx="254.28572"
       sodipodi:cy="320.93362"
       sodipodi:rx="54.285713"
       sodipodi:ry="54.285713"
       d="m 308.57143,320.93362 c 0,29.98118 -24.30454,54.28572 -54.28571,54.28572 -29.98117,0 -54.28571,-24.30454 -54.28571,-54.28572 0,-29.98117 24.30454,-54.28571 54.28571,-54.28571 29.98117,0 54.28571,24.30454 54.28571,54.28571 z"
       transform="matrix(0.86267021,0.05772374,-0.04974125,1.0011118,-90.03939,592.57529)" />
    <path
       sodipodi:type="arc"
       style="fill:#39275b;fill-opacity:1;stroke:#39275b;stroke-width:16;stroke-miterlimit:4;stroke-opacity:1;stroke-dasharray:none"
       id="path2989"
       sodipodi:cx="348.57144"
       sodipodi:cy="292.36218"
       sodipodi:rx="54.285713"
       sodipodi:ry="54.285713"
       d="m 402.85715,292.36218 c 0,29.98117 -24.30454,54.28572 -54.28571,54.28572 -29.98117,0 -54.28571,-24.30455 -54.28571,-54.28572 0,-29.98117 24.30454,-54.28571 54.28571,-54.28571 29.98117,0 54.28571,24.30454 54.28571,54.28571 z"
       transform="matrix(0.86267021,0.05772374,-0.04974125,1.0011118,-108.22229,575.28756)" />
    <path
       sodipodi:type="arc"
       style="fill:#39275b;fill-opacity:1;stroke:#39275b;stroke-width:16;stroke-miterlimit:4;stroke-opacity:1;stroke-dasharray:none"
       id="path2989-1"
       sodipodi:cx="348.57144"
       sodipodi:cy="292.36218"
       sodipodi:rx="54.285713"
       sodipodi:ry="54.285713"
       d="m 402.85715,292.36218 c 0,29.98117 -24.30454,54.28572 -54.28571,54.28572 -29.98117,0 -54.28571,-24.30455 -54.28571,-54.28572 0,-29.98117 24.30454,-54.28571 54.28571,-54.28571 29.98117,0 54.28571,24.30454 54.28571,54.28571 z"
       transform="matrix(0.86267021,0.05772374,-0.04974125,1.0011118,-47.303409,618.39349)" />
    <path
       sodipodi:type="arc"
       style="fill:#39275b;fill-opacity:1;stroke:#39275b;stroke-width:16;stroke-miterlimit:4;stroke-opacity:1;stroke-dasharray:none"
       id="path2989-7"
       sodipodi:cx="348.57144"
       sodipodi:cy="292.36218"
       sodipodi:rx="54.285713"
       sodipodi:ry="54.285713"
       d="m 402.85715,292.36218 c 0,29.98117 -24.30454,54.28572 -54.28571,54.28572 -29.98117,0 -54.28571,-24.30455 -54.28571,-54.28572 0,-29.98117 24.30454,-54.28571 54.28571,-54.28571 29.98117,0 54.28571,24.30454 54.28571,54.28571 z"
       transform="matrix(0.86267021,0.05772374,-0.04974125,1.0011118,13.483117,674.11783)" />
    <path
       style="fill:#39275b;fill-opacity:1;stroke:#000000;stroke-width:0.9308601px;stroke-linecap:butt;stroke-linejoin:miter;stroke-opacity:1"
       d="m 54.316808,1048.9443 251.389872,-0.4275"
       id="path3018"
       inkscape:connector-curvature="0" />
    <path
       style="fill:#39275b;fill-opacity:1;stroke:#39275b;stroke-width:7.52248621;stroke-miterlimit:4;stroke-opacity:1;stroke-dasharray:none"
       d="m 74.384347,1046.8683 c 12.057065,-4.8346 24.102525,-16.8167 30.036843,-29.8785 3.23812,-7.1275 5.91743,-17.08726 6.22063,-23.12388 l 0.1299,-2.57954 3.42483,-0.077 c 21.20561,-0.47664 40.54044,-15.4403 48.74144,-37.72219 l 1.66255,-4.51707 1.98463,0.43 c 6.58996,1.42779 12.34442,1.67047 19.2336,0.81113 l 1.53961,-0.19203 1.12482,3.75675 c 1.32646,4.43016 4.7467,11.44525 7.7978,15.99374 10.43651,15.55835 27.43546,24.81076 44.06796,23.98586 6.07471,-0.30121 5.83766,-0.34455 5.76822,1.05315 -0.0331,0.66415 0.34166,3.24909 0.83258,5.74438 4.3058,21.8854 17.59914,38.9181 35.82267,45.8987 l 3.52531,1.3504 -105.89617,0.1541 c -58.24289,0.084 -106.483611,0.099 -107.201604,0.032 -1.148202,-0.1072 -1.005525,-0.2418 1.184718,-1.1202 z"
       id="path3788"
       inkscape:connector-curvature="0" />
    <path
       style="fill:#39275b;fill-opacity:1;stroke:#39275b;stroke-width:5.31920099;stroke-miterlimit:4;stroke-opacity:1;stroke-dasharray:none"
       d="m 283.42311,1048.6624 c 0.25788,-0.2666 18.2022,-0.3876 18.40454,-0.124 0.3274,0.4266 -0.60077,0.4887 -7.82927,0.5255 -8.41781,0.043 -10.91346,-0.054 -10.57527,-0.4015 z"
       id="path3790"
       inkscape:connector-curvature="0" />
    <path
       style="fill:#39275b;fill-opacity:1;stroke:#39275b;stroke-width:1.88062155;stroke-miterlimit:4;stroke-opacity:1;stroke-dasharray:none"
       d="m 54.382803,1049.342 c -0.06228,-0.081 -0.06564,-0.7951 -0.0041,-0.8107 0.0874,-0.023 13.695828,-0.054 13.715716,-0.032 0.09884,0.1081 -0.324878,0.8306 -0.503503,0.8582 -0.122119,0.02 -2.951252,0.028 -6.286962,0.02 -3.335742,-0.01 -6.242541,4e-4 -6.459611,0.019 -0.217058,0.016 -0.424885,-9e-4 -0.461777,-0.055 l 0,0 z"
       id="path3796"
       inkscape:connector-curvature="0" />
    <path
       style="fill:#39275b;fill-opacity:1;stroke:#39275b;stroke-width:1.88062155;stroke-miterlimit:4;stroke-opacity:1;stroke-dasharray:none"
       d="m 71.699557,1050.7432 c -0.164072,-0.039 -0.926392,-0.5342 -1.694066,-1.0985 l -1.395801,-1.0254 -0.344598,0.3365 -0.34459,0.3367 -6.503334,0.011 c -6.118697,0.011 -6.693067,0 -9.71125,-0.3147 -1.764355,-0.1788 -3.426914,-0.3717 -3.694595,-0.4284 -0.267677,-0.058 -1.143988,-0.2366 -1.947362,-0.4 -14.037736,-2.8497 -26.877601,-12.4066 -35.226462,-26.219 -5.8293815,-9.6444 -9.1581256,-20.6584 -9.8315405,-32.53016 -0.13759565,-2.42593 -0.0990429,-8.28353 0.060337,-9.15939 l 0.1082459,-0.59522 85.6111656,5.72849 85.611183,5.7285 -1.48502,29.88818 -1.48502,29.888 -0.46633,0.037 c -0.54729,0.044 -57.58838,0.083 -79.921578,0.055 -14.360612,-0.018 -16.55976,-0.048 -17.339394,-0.2389 l 0,0 z"
       id="path3798"
       inkscape:connector-curvature="0" />
    <path
       style="fill:#39275b;fill-opacity:1;stroke:#39275b;stroke-width:2.6596005;stroke-miterlimit:4;stroke-opacity:1;stroke-dasharray:none"
       d=""
       id="path3800"
       inkscape:connector-curvature="0" />
    <path
       style="fill:#39275b;fill-opacity:1;stroke:#39275b;stroke-width:2.6596005;stroke-miterlimit:4;stroke-opacity:1;stroke-dasharray:none"
       d="m 304.06258,1047.7734 c -0.12236,-0.3066 -0.0744,-0.3533 0.39568,-0.3854 0.50787,-0.035 0.68969,0.1379 0.66519,0.6312 -0.0161,0.3214 -0.91785,0.1122 -1.06087,-0.2458 z"
       id="path3802"
       inkscape:connector-curvature="0" />
  </g>
</svg>
