<?xml version="1.0" encoding="UTF-8"?>
<!DOCTYPE svg PUBLIC "-//W3C//DTD SVG 1.1//EN" "http://www.w3.org/Graphics/SVG/1.1/DTD/svg11.dtd">
<svg version="1.1" xmlns="http://www.w3.org/2000/svg" xmlns:xlink="http://www.w3.org/1999/xlink" x="0px" y="0px" width="353.458" height="226.319" viewBox="0, 0, 353.458, 226.319">
  <g id="Layer 1">
    <g>
      <path d="M103.903,163.99 C102.373,194.795 79.613,218.327 53.069,216.551 C26.524,214.774 6.247,188.363 7.777,157.558 C9.308,126.754 32.067,103.222 58.612,104.998 C85.156,106.774 105.434,133.186 103.903,163.99 z" fill="#FFFFFF"/>
      <path d="M103.903,163.99 C102.373,194.795 79.613,218.327 53.069,216.551 C26.524,214.774 6.247,188.363 7.777,157.558 C9.308,126.754 32.067,103.222 58.612,104.998 C85.156,106.774 105.434,133.186 103.903,163.99 z" fill-opacity="0" stroke="#FFFFFF" stroke-width="16"/>
    </g>
    <g>
      <path d="M160.198,106.056 C158.707,136.07 136.531,158.999 110.667,157.268 C84.803,155.538 65.045,129.803 66.537,99.789 C68.028,69.774 90.204,46.846 116.068,48.576 C141.931,50.307 161.689,76.041 160.198,106.056 z" fill="#FFFFFF"/>
      <path d="M160.198,106.056 C158.707,136.07 136.531,158.999 110.667,157.268 C84.803,155.538 65.045,129.803 66.537,99.789 C68.028,69.774 90.204,46.846 116.068,48.576 C141.931,50.307 161.689,76.041 160.198,106.056 z" fill-opacity="0" stroke="#FFFFFF" stroke-width="16"/>
    </g>
    <g>
      <path d="M224.774,65.607 C223.282,95.622 201.107,118.551 175.243,116.82 C149.379,115.089 129.621,89.355 131.112,59.34 C132.604,29.326 154.779,6.397 180.643,8.128 C206.507,9.858 226.265,35.593 224.774,65.607 z" fill="#FFFFFF"/>
      <path d="M224.774,65.607 C223.282,95.622 201.107,118.551 175.243,116.82 C149.379,115.089 129.621,89.355 131.112,59.34 C132.604,29.326 154.779,6.397 180.643,8.128 C206.507,9.858 226.265,35.593 224.774,65.607 z" fill-opacity="0" stroke="#FFFFFF" stroke-width="16"/>
    </g>
    <g>
      <path d="M285.693,108.713 C284.201,138.728 262.026,161.657 236.162,159.926 C210.298,158.195 190.54,132.461 192.031,102.446 C193.523,72.432 215.698,49.503 241.562,51.234 C267.426,52.964 287.184,78.699 285.693,108.713 z" fill="#FFFFFF"/>
      <path d="M285.693,108.713 C284.201,138.728 262.026,161.657 236.162,159.926 C210.298,158.195 190.54,132.461 192.031,102.446 C193.523,72.432 215.698,49.503 241.562,51.234 C267.426,52.964 287.184,78.699 285.693,108.713 z" fill-opacity="0" stroke="#FFFFFF" stroke-width="16"/>
    </g>
    <g>
      <path d="M346.479,164.438 C344.988,194.452 322.812,217.381 296.948,215.65 C271.084,213.92 251.326,188.185 252.818,158.171 C254.309,128.156 276.485,105.227 302.349,106.958 C328.213,108.689 347.97,134.423 346.479,164.438 z" fill="#FFFFFF"/>
      <path d="M346.479,164.438 C344.988,194.452 322.812,217.381 296.948,215.65 C271.084,213.92 251.326,188.185 252.818,158.171 C254.309,128.156 276.485,105.227 302.349,106.958 C328.213,108.689 347.97,134.423 346.479,164.438 z" fill-opacity="0" stroke="#FFFFFF" stroke-width="16"/>
    </g>
    <g>
      <path d="M54.322,223.323 L305.712,222.895" fill="#FFFFFF"/>
      <path d="M54.322,223.323 L305.712,222.895" fill-opacity="0" stroke="#FFFFFF" stroke-width="0.931"/>
    </g>
    <g>
      <path d="M74.39,221.247 C86.447,216.412 98.492,204.43 104.427,191.368 C107.665,184.241 110.344,174.281 110.647,168.244 L110.777,165.665 L114.202,165.588 C135.408,165.111 154.743,150.147 162.944,127.865 L164.606,123.348 L166.591,123.778 C173.181,125.206 178.935,125.449 185.824,124.59 L187.364,124.397 L188.489,128.154 C189.815,132.584 193.235,139.599 196.287,144.148 C206.723,159.706 223.722,168.959 240.355,168.134 C246.429,167.833 246.192,167.789 246.123,169.187 C246.09,169.851 246.464,172.436 246.955,174.931 C251.261,196.817 264.554,213.849 282.778,220.83 L286.303,222.18 L180.407,222.335 C122.164,222.419 73.924,222.434 73.206,222.367 C72.057,222.259 72.2,222.125 74.39,221.246 z" fill="#FFFFFF"/>
      <path d="M74.39,221.247 C86.447,216.412 98.492,204.43 104.427,191.368 C107.665,184.241 110.344,174.281 110.647,168.244 L110.777,165.665 L114.202,165.588 C135.408,165.111 154.743,150.147 162.944,127.865 L164.606,123.348 L166.591,123.778 C173.181,125.206 178.935,125.449 185.824,124.59 L187.364,124.397 L188.489,128.154 C189.815,132.584 193.235,139.599 196.287,144.148 C206.723,159.706 223.722,168.959 240.355,168.134 C246.429,167.833 246.192,167.789 246.123,169.187 C246.09,169.851 246.464,172.436 246.955,174.931 C251.261,196.817 264.554,213.849 282.778,220.83 L286.303,222.18 L180.407,222.335 C122.164,222.419 73.924,222.434 73.206,222.367 C72.057,222.259 72.2,222.125 74.39,221.246 z" fill-opacity="0" stroke="#FFFFFF" stroke-width="7.522"/>
    </g>
    <g>
      <path d="M283.429,223.041 C283.687,222.774 301.631,222.653 301.833,222.917 C302.161,223.343 301.232,223.405 294.004,223.442 C285.586,223.485 283.091,223.388 283.429,223.041 z" fill="#FFFFFF"/>
      <path d="M283.429,223.041 C283.687,222.774 301.631,222.653 301.833,222.917 C302.161,223.343 301.232,223.405 294.004,223.442 C285.586,223.485 283.091,223.388 283.429,223.041 z" fill-opacity="0" stroke="#FFFFFF" stroke-width="5.319"/>
    </g>
    <g>
      <path d="M54.388,223.72 C54.326,223.639 54.323,222.925 54.384,222.91 C54.472,222.887 68.08,222.856 68.1,222.878 C68.199,222.986 67.775,223.708 67.596,223.736 C67.474,223.756 64.645,223.764 61.31,223.756 C57.974,223.746 55.067,223.756 54.85,223.775 C54.633,223.791 54.425,223.774 54.388,223.72 L54.388,223.72 z" fill="#FFFFFF"/>
      <path d="M54.388,223.72 C54.326,223.639 54.323,222.925 54.384,222.91 C54.472,222.887 68.08,222.856 68.1,222.878 C68.199,222.986 67.775,223.708 67.596,223.736 C67.474,223.756 64.645,223.764 61.31,223.756 C57.974,223.746 55.067,223.756 54.85,223.775 C54.633,223.791 54.425,223.774 54.388,223.72 L54.388,223.72 z" fill-opacity="0" stroke="#FFFFFF" stroke-width="1.881"/>
    </g>
    <g>
      <path d="M71.705,225.121 C71.541,225.082 70.779,224.587 70.011,224.023 L68.615,222.998 L68.271,223.334 L67.926,223.671 L61.423,223.682 C55.304,223.693 54.73,223.682 51.711,223.367 C49.947,223.188 48.285,222.995 48.017,222.939 C47.749,222.881 46.873,222.702 46.07,222.539 C32.032,219.689 19.192,210.132 10.843,196.32 C5.014,186.675 1.685,175.661 1.012,163.789 C0.874,161.364 0.912,155.506 1.072,154.63 L1.18,154.035 L86.791,159.763 L172.402,165.492 L170.917,195.38 L169.432,225.268 L168.966,225.305 C168.419,225.349 111.378,225.388 89.045,225.36 C74.684,225.342 72.485,225.312 71.705,225.121 L71.705,225.121 z" fill="#FFFFFF"/>
      <path d="M71.705,225.121 C71.541,225.082 70.779,224.587 70.011,224.023 L68.615,222.998 L68.271,223.334 L67.926,223.671 L61.423,223.682 C55.304,223.693 54.73,223.682 51.711,223.367 C49.947,223.188 48.285,222.995 48.017,222.939 C47.749,222.881 46.873,222.702 46.07,222.539 C32.032,219.689 19.192,210.132 10.843,196.32 C5.014,186.675 1.685,175.661 1.012,163.789 C0.874,161.364 0.912,155.506 1.072,154.63 L1.18,154.035 L86.791,159.763 L172.402,165.492 L170.917,195.38 L169.432,225.268 L168.966,225.305 C168.419,225.349 111.378,225.388 89.045,225.36 C74.684,225.342 72.485,225.312 71.705,225.121 L71.705,225.121 z" fill-opacity="0" stroke="#FFFFFF" stroke-width="1.881"/>
    </g>
    <g>
      <path d="M304.068,222.152 C303.946,221.845 303.994,221.798 304.464,221.766 C304.972,221.731 305.154,221.904 305.129,222.397 C305.113,222.719 304.211,222.51 304.068,222.152 z" fill="#FFFFFF"/>
      <path d="M304.068,222.152 C303.946,221.845 303.994,221.798 304.464,221.766 C304.972,221.731 305.154,221.904 305.129,222.397 C305.113,222.719 304.211,222.51 304.068,222.152 z" fill-opacity="0" stroke="#FFFFFF" stroke-width="2.66"/>
    </g>
  </g>
  <defs/>
</svg>
