<?xml version="1.0" encoding="UTF-8"?>
<!DOCTYPE svg PUBLIC "-//W3C//DTD SVG 1.1//EN" "http://www.w3.org/Graphics/SVG/1.1/DTD/svg11.dtd">
<svg version="1.1" xmlns="http://www.w3.org/2000/svg" xmlns:xlink="http://www.w3.org/1999/xlink" x="0px" y="0px" width="526.24" height="502.21" viewBox="0, 0, 526.24, 502.21">
  <g id="Layer 1">
    <g>
      <path d="M127.983,458.453 C115.577,492.567 77.861,510.159 43.751,497.744 C9.641,485.329 -7.943,447.609 4.481,413.502 C16.888,379.389 54.603,361.796 88.713,374.211 C122.824,386.626 140.407,424.346 127.983,458.453 z" fill="#FFFFFF"/>
      <path d="M127.983,458.453 C115.577,492.567 77.861,510.159 43.751,497.744 C9.641,485.329 -7.943,447.609 4.481,413.502 C16.888,379.389 54.603,361.796 88.713,374.211 C122.824,386.626 140.407,424.346 127.983,458.453 z" fill-opacity="0" stroke="#FFFFFF" stroke-width="1"/>
    </g>
    <g>
      <path d="M294.256,327.42 C281.849,361.533 244.133,379.126 210.023,366.71 C175.913,354.295 158.33,316.576 170.753,282.468 C183.16,248.355 220.875,230.762 254.986,243.178 C289.096,255.593 306.679,293.312 294.256,327.42 z" fill="#FFFFFF"/>
      <path d="M294.256,327.42 C281.849,361.533 244.133,379.126 210.023,366.71 C175.913,354.295 158.33,316.576 170.753,282.468 C183.16,248.355 220.875,230.762 254.986,243.178 C289.096,255.593 306.679,293.312 294.256,327.42 z" fill-opacity="0" stroke="#FFFFFF" stroke-width="1"/>
    </g>
    <g>
      <path d="M521.756,337.251 C509.349,371.364 471.634,388.957 437.524,376.542 C403.413,364.127 385.83,326.407 398.254,292.3 C410.66,258.186 448.376,240.594 482.486,253.009 C516.596,265.424 534.18,303.144 521.756,337.251 z" fill="#FFFFFF"/>
      <path d="M521.756,337.251 C509.349,371.364 471.634,388.957 437.524,376.542 C403.413,364.127 385.83,326.407 398.254,292.3 C410.66,258.186 448.376,240.594 482.486,253.009 C516.596,265.424 534.18,303.144 521.756,337.251 z" fill-opacity="0" stroke="#FFFFFF" stroke-width="1"/>
    </g>
    <g>
      <path d="M356.816,88.706 C344.409,122.819 306.694,140.412 272.584,127.997 C238.474,115.582 220.89,77.862 233.314,43.755 C245.72,9.642 283.436,-7.951 317.546,4.464 C351.656,16.879 369.24,54.599 356.816,88.706 z" fill="#FFFFFF"/>
      <path d="M356.816,88.706 C344.409,122.819 306.694,140.412 272.584,127.997 C238.474,115.582 220.89,77.862 233.314,43.755 C245.72,9.642 283.436,-7.951 317.546,4.464 C351.656,16.879 369.24,54.599 356.816,88.706 z" fill-opacity="0" stroke="#FFFFFF" stroke-width="1"/>
    </g>
    <g>
      <path d="M66.232,435.978 L232.504,304.944" fill="#FFFFFF"/>
      <path d="M66.232,435.978 L232.504,304.944" fill-opacity="0" stroke="#FFFFFF" stroke-width="30"/>
    </g>
    <g>
      <path d="M214.323,308.964 L463.785,308.554" fill="#FFFFFF"/>
      <path d="M214.323,308.964 L463.785,308.554" fill-opacity="0" stroke="#FFFFFF" stroke-width="30"/>
    </g>
    <g>
      <path d="M233.482,302.259 L294.088,68.915" fill="#FFFFFF"/>
      <path d="M233.482,302.259 L294.088,68.915" fill-opacity="0" stroke="#FFFFFF" stroke-width="30"/>
    </g>
  </g>
  <defs/>
</svg>
