<?xml version="1.0" encoding="UTF-8" standalone="no"?>
<!-- Created with Inkscape (http://www.inkscape.org/) -->

<svg
   xmlns:dc="http://purl.org/dc/elements/1.1/"
   xmlns:cc="http://creativecommons.org/ns#"
   xmlns:rdf="http://www.w3.org/1999/02/22-rdf-syntax-ns#"
   xmlns:svg="http://www.w3.org/2000/svg"
   xmlns="http://www.w3.org/2000/svg"
   xmlns:sodipodi="http://sodipodi.sourceforge.net/DTD/sodipodi-0.dtd"
   xmlns:inkscape="http://www.inkscape.org/namespaces/inkscape"
   width="155.03125"
   height="130.25"
   id="svg2"
   version="1.1"
   inkscape:version="0.48.4 r9939"
   sodipodi:docname="regression.svg">
  <defs
     id="defs4" />
  <sodipodi:namedview
     id="base"
     pagecolor="#ffffff"
     bordercolor="#666666"
     borderopacity="1.0"
     inkscape:pageopacity="0.0"
     inkscape:pageshadow="2"
     inkscape:zoom="1.979899"
     inkscape:cx="88.380612"
     inkscape:cy="-2.0231816"
     inkscape:document-units="px"
     inkscape:current-layer="layer1"
     showgrid="false"
     fit-margin-top="0"
     fit-margin-left="0"
     fit-margin-right="0"
     fit-margin-bottom="0"
     inkscape:window-width="1440"
     inkscape:window-height="878"
     inkscape:window-x="-8"
     inkscape:window-y="-8"
     inkscape:window-maximized="1" />
  <metadata
     id="metadata7">
    <rdf:RDF>
      <cc:Work
         rdf:about="">
        <dc:format>image/svg+xml</dc:format>
        <dc:type
           rdf:resource="http://purl.org/dc/dcmitype/StillImage" />
        <dc:title />
      </cc:Work>
    </rdf:RDF>
  </metadata>
  <g
     inkscape:label="Layer 1"
     inkscape:groupmode="layer"
     id="layer1"
     transform="translate(-106,-139.75)">
    <path
       sodipodi:type="arc"
       style="fill:#39275b;fill-opacity:1;stroke:#39275b;stroke-width:16;stroke-miterlimit:4;stroke-opacity:1;stroke-dasharray:none"
       id="path3000"
       sodipodi:cx="143.94673"
       sodipodi:cy="201.30867"
       sodipodi:rx="12.626906"
       sodipodi:ry="12.626906"
       d="m 156.57364,201.30867 c 0,6.97365 -5.65326,12.62691 -12.62691,12.62691 -6.97365,0 -12.6269,-5.65326 -12.6269,-12.62691 0,-6.97365 5.65325,-12.62691 12.6269,-12.62691 6.97365,0 12.62691,5.65326 12.62691,12.62691 z"
       transform="matrix(0.19343799,0,0,0.19343799,99.465085,145.73104)" />
    <path
       sodipodi:type="arc"
       style="fill:#39275b;fill-opacity:1;stroke:#39275b;stroke-width:16;stroke-miterlimit:4;stroke-opacity:1;stroke-dasharray:none"
       id="path3000-4"
       sodipodi:cx="143.94673"
       sodipodi:cy="201.30867"
       sodipodi:rx="12.626906"
       sodipodi:ry="12.626906"
       d="m 156.57364,201.30867 c 0,6.97365 -5.65326,12.62691 -12.62691,12.62691 -6.97365,0 -12.6269,-5.65326 -12.6269,-12.62691 0,-6.97365 5.65325,-12.62691 12.6269,-12.62691 6.97365,0 12.62691,5.65326 12.62691,12.62691 z"
       transform="matrix(0.19343799,0,0,0.19343799,142.15523,141.99287)" />
    <path
       sodipodi:type="arc"
       style="fill:#39275b;fill-opacity:1;stroke:#39275b;stroke-width:16;stroke-miterlimit:4;stroke-opacity:1;stroke-dasharray:none"
       id="path3000-4-8"
       sodipodi:cx="143.94673"
       sodipodi:cy="201.30867"
       sodipodi:rx="12.626906"
       sodipodi:ry="12.626906"
       d="m 156.57364,201.30867 c 0,6.97365 -5.65326,12.62691 -12.62691,12.62691 -6.97365,0 -12.6269,-5.65326 -12.6269,-12.62691 0,-6.97365 5.65325,-12.62691 12.6269,-12.62691 6.97365,0 12.62691,5.65326 12.62691,12.62691 z"
       transform="matrix(0.19343799,0,0,0.19343799,118.5838,134.13572)" />
    <path
       sodipodi:type="arc"
       style="fill:#39275b;fill-opacity:1;stroke:#39275b;stroke-width:16;stroke-miterlimit:4;stroke-opacity:1;stroke-dasharray:none"
       id="path3000-4-8-8"
       sodipodi:cx="143.94673"
       sodipodi:cy="201.30867"
       sodipodi:rx="12.626906"
       sodipodi:ry="12.626906"
       d="m 156.57364,201.30867 c 0,6.97365 -5.65326,12.62691 -12.62691,12.62691 -6.97365,0 -12.6269,-5.65326 -12.6269,-12.62691 0,-6.97365 5.65325,-12.62691 12.6269,-12.62691 6.97365,0 12.62691,5.65326 12.62691,12.62691 z"
       transform="matrix(0.19343799,0,0,0.19343799,117.15523,150.5643)" />
    <path
       sodipodi:type="arc"
       style="fill:#39275b;fill-opacity:1;stroke:#39275b;stroke-width:16;stroke-miterlimit:4;stroke-opacity:1;stroke-dasharray:none"
       id="path3000-4-8-8-2"
       sodipodi:cx="143.94673"
       sodipodi:cy="201.30867"
       sodipodi:rx="12.626906"
       sodipodi:ry="12.626906"
       d="m 156.57364,201.30867 c 0,6.97365 -5.65326,12.62691 -12.62691,12.62691 -6.97365,0 -12.6269,-5.65326 -12.6269,-12.62691 0,-6.97365 5.65325,-12.62691 12.6269,-12.62691 6.97365,0 12.62691,5.65326 12.62691,12.62691 z"
       transform="matrix(0.19343799,0,0,0.19343799,128.58381,144.13572)" />
    <path
       sodipodi:type="arc"
       style="fill:#39275b;fill-opacity:1;stroke:#39275b;stroke-width:16;stroke-miterlimit:4;stroke-opacity:1;stroke-dasharray:none"
       id="path3000-4-8-8-2-4"
       sodipodi:cx="143.94673"
       sodipodi:cy="201.30867"
       sodipodi:rx="12.626906"
       sodipodi:ry="12.626906"
       d="m 156.57364,201.30867 c 0,6.97365 -5.65326,12.62691 -12.62691,12.62691 -6.97365,0 -12.6269,-5.65326 -12.6269,-12.62691 0,-6.97365 5.65325,-12.62691 12.6269,-12.62691 6.97365,0 12.62691,5.65326 12.62691,12.62691 z"
       transform="matrix(0.19343799,0,0,0.19343799,132.86952,126.99286)" />
    <path
       sodipodi:type="arc"
       style="fill:#39275b;fill-opacity:1;stroke:#39275b;stroke-width:16;stroke-miterlimit:4;stroke-opacity:1;stroke-dasharray:none"
       id="path3000-4-8-8-2-4-5"
       sodipodi:cx="143.94673"
       sodipodi:cy="201.30867"
       sodipodi:rx="12.626906"
       sodipodi:ry="12.626906"
       d="m 156.57364,201.30867 c 0,6.97365 -5.65326,12.62691 -12.62691,12.62691 -6.97365,0 -12.6269,-5.65326 -12.6269,-12.62691 0,-6.97365 5.65325,-12.62691 12.6269,-12.62691 6.97365,0 12.62691,5.65326 12.62691,12.62691 z"
       transform="matrix(0.19343799,0,0,0.19343799,130.01238,157.70716)" />
    <path
       sodipodi:type="arc"
       style="fill:#39275b;fill-opacity:1;stroke:#39275b;stroke-width:16;stroke-miterlimit:4;stroke-opacity:1;stroke-dasharray:none"
       id="path3000-4-8-8-2-4-5-5"
       sodipodi:cx="143.94673"
       sodipodi:cy="201.30867"
       sodipodi:rx="12.626906"
       sodipodi:ry="12.626906"
       d="m 156.57364,201.30867 c 0,6.97365 -5.65326,12.62691 -12.62691,12.62691 -6.97365,0 -12.6269,-5.65326 -12.6269,-12.62691 0,-6.97365 5.65325,-12.62691 12.6269,-12.62691 6.97365,0 12.62691,5.65326 12.62691,12.62691 z"
       transform="matrix(0.19343799,0,0,0.19343799,143.58381,156.27858)" />
    <path
       sodipodi:type="arc"
       style="fill:#39275b;fill-opacity:1;stroke:#39275b;stroke-width:16;stroke-miterlimit:4;stroke-opacity:1;stroke-dasharray:none"
       id="path3000-4-8-8-2-4-5-1"
       sodipodi:cx="143.94673"
       sodipodi:cy="201.30867"
       sodipodi:rx="12.626906"
       sodipodi:ry="12.626906"
       d="m 156.57364,201.30867 c 0,6.97365 -5.65326,12.62691 -12.62691,12.62691 -6.97365,0 -12.6269,-5.65326 -12.6269,-12.62691 0,-6.97365 5.65325,-12.62691 12.6269,-12.62691 6.97365,0 12.62691,5.65326 12.62691,12.62691 z"
       transform="matrix(0.19343799,0,0,0.19343799,103.58381,129.85001)" />
    <path
       sodipodi:type="arc"
       style="fill:#39275b;fill-opacity:1;stroke:#39275b;stroke-width:16;stroke-miterlimit:4;stroke-opacity:1;stroke-dasharray:none"
       id="path3000-4-8-8-2-4-5-7"
       sodipodi:cx="143.94673"
       sodipodi:cy="201.30867"
       sodipodi:rx="12.626906"
       sodipodi:ry="12.626906"
       d="m 156.57364,201.30867 c 0,6.97365 -5.65326,12.62691 -12.62691,12.62691 -6.97365,0 -12.6269,-5.65326 -12.6269,-12.62691 0,-6.97365 5.65325,-12.62691 12.6269,-12.62691 6.97365,0 12.62691,5.65326 12.62691,12.62691 z"
       transform="matrix(0.19343799,0,0,0.19343799,119.29809,117.70715)" />
    <path
       sodipodi:type="arc"
       style="fill:#39275b;fill-opacity:1;stroke:#39275b;stroke-width:16;stroke-miterlimit:4;stroke-opacity:1;stroke-dasharray:none"
       id="path3000-4-8-8-2-4-5-11"
       sodipodi:cx="143.94673"
       sodipodi:cy="201.30867"
       sodipodi:rx="12.626906"
       sodipodi:ry="12.626906"
       d="m 156.57364,201.30867 c 0,6.97365 -5.65326,12.62691 -12.62691,12.62691 -6.97365,0 -12.6269,-5.65326 -12.6269,-12.62691 0,-6.97365 5.65325,-12.62691 12.6269,-12.62691 6.97365,0 12.62691,5.65326 12.62691,12.62691 z"
       transform="matrix(0.19343799,0,0,0.19343799,105.72666,159.13572)" />
    <path
       sodipodi:type="arc"
       style="fill:#39275b;fill-opacity:1;stroke:#39275b;stroke-width:16;stroke-miterlimit:4;stroke-opacity:1;stroke-dasharray:none"
       id="path3000-4-8-8-2-4-5-52"
       sodipodi:cx="143.94673"
       sodipodi:cy="201.30867"
       sodipodi:rx="12.626906"
       sodipodi:ry="12.626906"
       d="m 156.57364,201.30867 c 0,6.97365 -5.65326,12.62691 -12.62691,12.62691 -6.97365,0 -12.6269,-5.65326 -12.6269,-12.62691 0,-6.97365 5.65325,-12.62691 12.6269,-12.62691 6.97365,0 12.62691,5.65326 12.62691,12.62691 z"
       transform="matrix(0.19343799,0,0,0.19343799,118.58381,166.99286)" />
    <path
       sodipodi:type="arc"
       style="fill:#39275b;fill-opacity:1;stroke:#39275b;stroke-width:16;stroke-miterlimit:4;stroke-opacity:1;stroke-dasharray:none"
       id="path3000-4-8-8-2-4-5-76"
       sodipodi:cx="143.94673"
       sodipodi:cy="201.30867"
       sodipodi:rx="12.626906"
       sodipodi:ry="12.626906"
       d="m 156.57364,201.30867 c 0,6.97365 -5.65326,12.62691 -12.62691,12.62691 -6.97365,0 -12.6269,-5.65326 -12.6269,-12.62691 0,-6.97365 5.65325,-12.62691 12.6269,-12.62691 6.97365,0 12.62691,5.65326 12.62691,12.62691 z"
       transform="matrix(0.19343799,0,0,0.19343799,142.86952,201.27858)" />
    <path
       sodipodi:type="arc"
       style="fill:#39275b;fill-opacity:1;stroke:#39275b;stroke-width:16;stroke-miterlimit:4;stroke-opacity:1;stroke-dasharray:none"
       id="path3000-4-8-8-2-4-5-14"
       sodipodi:cx="143.94673"
       sodipodi:cy="201.30867"
       sodipodi:rx="12.626906"
       sodipodi:ry="12.626906"
       d="m 156.57364,201.30867 c 0,6.97365 -5.65326,12.62691 -12.62691,12.62691 -6.97365,0 -12.6269,-5.65326 -12.6269,-12.62691 0,-6.97365 5.65325,-12.62691 12.6269,-12.62691 6.97365,0 12.62691,5.65326 12.62691,12.62691 z"
       transform="matrix(0.19343799,0,0,0.19343799,162.15523,200.56429)" />
    <path
       sodipodi:type="arc"
       style="fill:#39275b;fill-opacity:1;stroke:#39275b;stroke-width:16;stroke-miterlimit:4;stroke-opacity:1;stroke-dasharray:none"
       id="path3000-4-8-8-2-4-5-2"
       sodipodi:cx="143.94673"
       sodipodi:cy="201.30867"
       sodipodi:rx="12.626906"
       sodipodi:ry="12.626906"
       d="m 156.57364,201.30867 c 0,6.97365 -5.65326,12.62691 -12.62691,12.62691 -6.97365,0 -12.6269,-5.65326 -12.6269,-12.62691 0,-6.97365 5.65325,-12.62691 12.6269,-12.62691 6.97365,0 12.62691,5.65326 12.62691,12.62691 z"
       transform="matrix(0.19343799,0,0,0.19343799,153.58381,214.13572)" />
    <path
       sodipodi:type="arc"
       style="fill:#39275b;fill-opacity:1;stroke:#39275b;stroke-width:16;stroke-miterlimit:4;stroke-opacity:1;stroke-dasharray:none"
       id="path3000-4-8-8-2-4-5-3"
       sodipodi:cx="143.94673"
       sodipodi:cy="201.30867"
       sodipodi:rx="12.626906"
       sodipodi:ry="12.626906"
       d="m 156.57364,201.30867 c 0,6.97365 -5.65326,12.62691 -12.62691,12.62691 -6.97365,0 -12.6269,-5.65326 -12.6269,-12.62691 0,-6.97365 5.65325,-12.62691 12.6269,-12.62691 6.97365,0 12.62691,5.65326 12.62691,12.62691 z"
       transform="matrix(0.19343799,0,0,0.19343799,154.29809,187.70716)" />
    <path
       sodipodi:type="arc"
       style="fill:#39275b;fill-opacity:1;stroke:#39275b;stroke-width:16;stroke-miterlimit:4;stroke-opacity:1;stroke-dasharray:none"
       id="path3000-4-8-8-2-4-5-22"
       sodipodi:cx="143.94673"
       sodipodi:cy="201.30867"
       sodipodi:rx="12.626906"
       sodipodi:ry="12.626906"
       d="m 156.57364,201.30867 c 0,6.97365 -5.65326,12.62691 -12.62691,12.62691 -6.97365,0 -12.6269,-5.65326 -12.6269,-12.62691 0,-6.97365 5.65325,-12.62691 12.6269,-12.62691 6.97365,0 12.62691,5.65326 12.62691,12.62691 z"
       transform="matrix(0.19343799,0,0,0.19343799,171.44095,213.42144)" />
    <path
       sodipodi:type="arc"
       style="fill:#39275b;fill-opacity:1;stroke:#39275b;stroke-width:16;stroke-miterlimit:4;stroke-opacity:1;stroke-dasharray:none"
       id="path3000-4-8-8-2-4-5-16"
       sodipodi:cx="143.94673"
       sodipodi:cy="201.30867"
       sodipodi:rx="12.626906"
       sodipodi:ry="12.626906"
       d="m 156.57364,201.30867 c 0,6.97365 -5.65326,12.62691 -12.62691,12.62691 -6.97365,0 -12.6269,-5.65326 -12.6269,-12.62691 0,-6.97365 5.65325,-12.62691 12.6269,-12.62691 6.97365,0 12.62691,5.65326 12.62691,12.62691 z"
       transform="matrix(0.19343799,0,0,0.19343799,172.15524,190.56429)" />
    <path
       sodipodi:type="arc"
       style="fill:#39275b;fill-opacity:1;stroke:#39275b;stroke-width:16;stroke-miterlimit:4;stroke-opacity:1;stroke-dasharray:none"
       id="path3000-4-8-8-2-4-5-8"
       sodipodi:cx="143.94673"
       sodipodi:cy="201.30867"
       sodipodi:rx="12.626906"
       sodipodi:ry="12.626906"
       d="m 156.57364,201.30867 c 0,6.97365 -5.65326,12.62691 -12.62691,12.62691 -6.97365,0 -12.6269,-5.65326 -12.6269,-12.62691 0,-6.97365 5.65325,-12.62691 12.6269,-12.62691 6.97365,0 12.62691,5.65326 12.62691,12.62691 z"
       transform="matrix(0.19343799,0,0,0.19343799,183.5838,202.70715)" />
    <path
       sodipodi:type="arc"
       style="fill:#39275b;fill-opacity:1;stroke:#39275b;stroke-width:16;stroke-miterlimit:4;stroke-opacity:1;stroke-dasharray:none"
       id="path3000-4-8-8-2-4-5-57"
       sodipodi:cx="143.94673"
       sodipodi:cy="201.30867"
       sodipodi:rx="12.626906"
       sodipodi:ry="12.626906"
       d="m 156.57364,201.30867 c 0,6.97365 -5.65326,12.62691 -12.62691,12.62691 -6.97365,0 -12.6269,-5.65326 -12.6269,-12.62691 0,-6.97365 5.65325,-12.62691 12.6269,-12.62691 6.97365,0 12.62691,5.65326 12.62691,12.62691 z"
       transform="matrix(0.19343799,0,0,0.19343799,187.15523,190.56429)" />
    <path
       sodipodi:type="arc"
       style="fill:#39275b;fill-opacity:1;stroke:#39275b;stroke-width:16;stroke-miterlimit:4;stroke-opacity:1;stroke-dasharray:none"
       id="path3000-4-8-8-2-4-5-6"
       sodipodi:cx="143.94673"
       sodipodi:cy="201.30867"
       sodipodi:rx="12.626906"
       sodipodi:ry="12.626906"
       d="m 156.57364,201.30867 c 0,6.97365 -5.65326,12.62691 -12.62691,12.62691 -6.97365,0 -12.6269,-5.65326 -12.6269,-12.62691 0,-6.97365 5.65325,-12.62691 12.6269,-12.62691 6.97365,0 12.62691,5.65326 12.62691,12.62691 z"
       transform="matrix(0.19343799,0,0,0.19343799,172.86952,176.99287)" />
    <path
       sodipodi:type="arc"
       style="fill:#39275b;fill-opacity:1;stroke:#39275b;stroke-width:16;stroke-miterlimit:4;stroke-opacity:1;stroke-dasharray:none"
       id="path3000-4-8-8-2-4-5-18"
       sodipodi:cx="143.94673"
       sodipodi:cy="201.30867"
       sodipodi:rx="12.626906"
       sodipodi:ry="12.626906"
       d="m 156.57364,201.30867 c 0,6.97365 -5.65326,12.62691 -12.62691,12.62691 -6.97365,0 -12.6269,-5.65326 -12.6269,-12.62691 0,-6.97365 5.65325,-12.62691 12.6269,-12.62691 6.97365,0 12.62691,5.65326 12.62691,12.62691 z"
       transform="matrix(0.19343799,0,0,0.19343799,187.15524,176.99286)" />
    <path
       sodipodi:type="arc"
       style="fill:#39275b;fill-opacity:1;stroke:#39275b;stroke-width:16;stroke-miterlimit:4;stroke-opacity:1;stroke-dasharray:none"
       id="path3000-4-8-8-2-4-5-9"
       sodipodi:cx="143.94673"
       sodipodi:cy="201.30867"
       sodipodi:rx="12.626906"
       sodipodi:ry="12.626906"
       d="m 156.57364,201.30867 c 0,6.97365 -5.65326,12.62691 -12.62691,12.62691 -6.97365,0 -12.6269,-5.65326 -12.6269,-12.62691 0,-6.97365 5.65325,-12.62691 12.6269,-12.62691 6.97365,0 12.62691,5.65326 12.62691,12.62691 z"
       transform="matrix(0.19343799,0,0,0.19343799,199.2981,197.70715)" />
    <path
       style="fill:none;stroke:#39275b;stroke-width:9;stroke-linecap:butt;stroke-linejoin:miter;stroke-miterlimit:4;stroke-opacity:1;stroke-dasharray:none"
       d="m 110.51018,139.75027 0,125.76399 150.51273,0"
       id="path3325"
       inkscape:connector-curvature="0" />
    <path
       style="fill:none;stroke:#39275b;stroke-width:9;stroke-linecap:butt;stroke-linejoin:miter;stroke-miterlimit:4;stroke-opacity:1;stroke-dasharray:none"
       d="M 111.62186,262.92797 242.94169,156.86195"
       id="path4108"
       inkscape:connector-curvature="0" />
  </g>
</svg>
