<?xml version="1.0" encoding="UTF-8"?>
<!DOCTYPE svg PUBLIC "-//W3C//DTD SVG 1.1//EN" "http://www.w3.org/Graphics/SVG/1.1/DTD/svg11.dtd">
<svg version="1.1" xmlns="http://www.w3.org/2000/svg" xmlns:xlink="http://www.w3.org/1999/xlink" x="0px" y="0px" width="432" height="432" viewBox="0, 0, 432, 432">
  <g id="Layer 1">
    <path d="M406.537,0.007 L431.993,25.463 L25.463,431.993 L0.007,406.537 z" fill="#FFFFFF"/>
    <path d="M135.35,107.445 C123.512,107.445 113.916,97.849 113.916,86.011 C113.916,74.174 123.512,64.577 135.35,64.577 C147.188,64.577 156.784,74.174 156.784,86.011 C156.784,97.849 147.188,107.445 135.35,107.445 z" fill="#FFFFFF"/>
    <path d="M92.482,162.79 C80.644,162.79 71.048,153.193 71.048,141.356 C71.048,129.518 80.644,119.922 92.482,119.922 C104.32,119.922 113.916,129.518 113.916,141.356 C113.916,153.193 104.32,162.79 92.482,162.79 z" fill="#FFFFFF"/>
    <path d="M159.214,162.79 C147.376,162.79 137.78,153.193 137.78,141.356 C137.78,129.518 147.376,119.922 159.214,119.922 C171.052,119.922 180.648,129.518 180.648,141.356 C180.648,153.193 171.052,162.79 159.214,162.79 z" fill="#FFFFFF"/>
    <path d="M202.082,115.295 C190.244,115.295 180.648,105.698 180.648,93.861 C180.648,82.023 190.244,72.427 202.082,72.427 C213.92,72.427 223.516,82.023 223.516,93.861 C223.516,105.698 213.92,115.295 202.082,115.295 z" fill="#FFFFFF"/>
    <path d="M116.346,216.091 C104.508,216.091 94.911,206.495 94.911,194.657 C94.911,182.819 104.508,173.223 116.346,173.223 C128.183,173.223 137.78,182.819 137.78,194.657 C137.78,206.495 128.183,216.091 116.346,216.091 z" fill="#FFFFFF"/>
    <path d="M202.082,55.319 C190.244,55.319 180.648,45.723 180.648,33.885 C180.648,22.048 190.244,12.451 202.082,12.451 C213.92,12.451 223.516,22.048 223.516,33.885 C223.516,45.723 213.92,55.319 202.082,55.319 z" fill="#FFFFFF"/>
    <path d="M135.35,48.125 C123.512,48.125 113.916,38.528 113.916,26.691 C113.916,14.853 123.512,5.257 135.35,5.257 C147.188,5.257 156.784,14.853 156.784,26.691 C156.784,38.528 147.188,48.125 135.35,48.125 z" fill="#FFFFFF"/>
    <path d="M44.746,205.658 C32.908,205.658 23.312,196.062 23.312,184.224 C23.312,172.386 32.908,162.79 44.746,162.79 C56.584,162.79 66.18,172.386 66.18,184.224 C66.18,196.062 56.584,205.658 44.746,205.658 z" fill="#FFFFFF"/>
    <path d="M73.477,90.993 C61.64,90.993 52.043,81.397 52.043,69.559 C52.043,57.721 61.64,48.125 73.477,48.125 C85.315,48.125 94.911,57.721 94.911,69.559 C94.911,81.397 85.315,90.993 73.477,90.993 z" fill="#FFFFFF"/>
    <path d="M26.148,145.588 C14.31,145.588 4.714,135.992 4.714,124.154 C4.714,112.316 14.31,102.72 26.148,102.72 C37.986,102.72 47.582,112.316 47.582,124.154 C47.582,135.992 37.986,145.588 26.148,145.588 z" fill="#FFFFFF"/>
    <path d="M329.824,254.768 C317.986,254.768 308.39,245.172 308.39,233.334 C308.39,221.496 317.986,211.9 329.824,211.9 C341.662,211.9 351.258,221.496 351.258,233.334 C351.258,245.172 341.662,254.768 329.824,254.768 z" fill="#FFFFFF"/>
    <path d="M372.692,199.846 C360.855,199.846 351.258,190.25 351.258,178.412 C351.258,166.574 360.855,156.978 372.692,156.978 C384.53,156.978 394.127,166.574 394.127,178.412 C394.127,190.25 384.53,199.846 372.692,199.846 z" fill="#FFFFFF"/>
    <path d="M286.956,303.896 C275.118,303.896 265.522,294.3 265.522,282.462 C265.522,270.625 275.118,261.028 286.956,261.028 C298.794,261.028 308.39,270.625 308.39,282.462 C308.39,294.3 298.794,303.896 286.956,303.896 z" fill="#FFFFFF"/>
    <path d="M281.371,372.616 C269.533,372.616 259.937,363.02 259.937,351.182 C259.937,339.345 269.533,329.748 281.371,329.748 C293.208,329.748 302.805,339.345 302.805,351.182 C302.805,363.02 293.208,372.616 281.371,372.616 z" fill="#FFFFFF"/>
    <path d="M342.671,329.748 C330.834,329.748 321.237,320.152 321.237,308.314 C321.237,296.476 330.834,286.88 342.671,286.88 C354.509,286.88 364.105,296.476 364.105,308.314 C364.105,320.152 354.509,329.748 342.671,329.748 z" fill="#FFFFFF"/>
    <path d="M390.383,261.028 C378.546,261.028 368.949,251.432 368.949,239.594 C368.949,227.756 378.546,218.16 390.383,218.16 C402.221,218.16 411.817,227.756 411.817,239.594 C411.817,251.432 402.221,261.028 390.383,261.028 z" fill="#FFFFFF"/>
    <path d="M409.037,329.748 C397.199,329.748 387.602,320.152 387.602,308.314 C387.602,296.476 397.199,286.88 409.037,286.88 C420.874,286.88 430.471,296.476 430.471,308.314 C430.471,320.152 420.874,329.748 409.037,329.748 z" fill="#FFFFFF"/>
    <path d="M342.671,390.785 C330.834,390.785 321.237,381.188 321.237,369.35 C321.237,357.513 330.834,347.916 342.671,347.916 C354.509,347.916 364.105,357.513 364.105,369.35 C364.105,381.188 354.509,390.785 342.671,390.785 z" fill="#FFFFFF"/>
    <path d="M221.403,346.765 C209.566,346.765 199.969,337.168 199.969,325.33 C199.969,313.493 209.566,303.896 221.403,303.896 C233.241,303.896 242.837,313.493 242.837,325.33 C242.837,337.168 233.241,346.765 221.403,346.765 z" fill="#FFFFFF"/>
    <path d="M286.956,429.235 C275.118,429.235 265.522,419.639 265.522,407.801 C265.522,395.963 275.118,386.367 286.956,386.367 C298.794,386.367 308.39,395.963 308.39,407.801 C308.39,419.639 298.794,429.235 286.956,429.235 z" fill="#FFFFFF"/>
    <path d="M56.954,258.959 C45.116,258.959 35.52,249.363 35.52,237.525 C35.52,225.687 45.116,216.091 56.954,216.091 C68.792,216.091 78.388,225.687 78.388,237.525 C78.388,249.363 68.792,258.959 56.954,258.959 z" fill="#FFFFFF"/>
    <path d="M221.403,410.148 C209.566,410.148 199.969,400.551 199.969,388.714 C199.969,376.876 209.566,367.28 221.403,367.28 C233.241,367.28 242.837,376.876 242.837,388.714 C242.837,400.551 233.241,410.148 221.403,410.148 z" fill="#FFFFFF"/>
  </g>
  <defs/>
</svg>
