<?xml version="1.0" encoding="UTF-8"?>
<!DOCTYPE svg PUBLIC "-//W3C//DTD SVG 1.1//EN" "http://www.w3.org/Graphics/SVG/1.1/DTD/svg11.dtd">
<svg version="1.1" xmlns="http://www.w3.org/2000/svg" xmlns:xlink="http://www.w3.org/1999/xlink" x="0px" y="0px" width="600" height="600" viewBox="0, 0, 600, 600">
  <g id="Layer 1">
    <g>
      <path d="M603.187,187.652 C603.187,291.009 519.401,374.795 416.045,374.795 C312.688,374.795 228.902,291.009 228.902,187.652 C228.902,84.296 312.688,0.51 416.045,0.51 C519.401,0.51 603.187,84.296 603.187,187.652 z M558.193,189.134 C558.193,110.471 494.424,46.702 415.761,46.702 C337.098,46.702 273.33,110.471 273.33,189.134 C273.33,267.796 337.098,331.565 415.761,331.565 C494.424,331.565 558.193,267.796 558.193,189.134 z" fill="#FFFFFF"/>
      <path d="M603.187,187.652 C603.187,291.009 519.401,374.795 416.045,374.795 C312.688,374.795 228.902,291.009 228.902,187.652 C228.902,84.296 312.688,0.51 416.045,0.51 C519.401,0.51 603.187,84.296 603.187,187.652 z M558.193,189.134 C558.193,110.471 494.424,46.702 415.761,46.702 C337.098,46.702 273.33,110.471 273.33,189.134 C273.33,267.796 337.098,331.565 415.761,331.565 C494.424,331.565 558.193,267.796 558.193,189.134 z" fill-opacity="0" stroke="#FFFFFF" stroke-width="1"/>
    </g>
    <g>
      <path d="M-0,532.72 L275.973,256.747 L343.253,324.027 L67.28,600 z" fill="#FFFFFF"/>
      <path d="M-0,532.72 L275.973,256.747 L343.253,324.027 L67.28,600 z" fill-opacity="0" stroke="#FFFFFF" stroke-width="1"/>
    </g>
  </g>
  <defs/>
</svg>
