<?xml version="1.0" encoding="UTF-8" standalone="no"?>
<!-- Created with Inkscape (http://www.inkscape.org/) -->

<svg
   xmlns:dc="http://purl.org/dc/elements/1.1/"
   xmlns:cc="http://creativecommons.org/ns#"
   xmlns:rdf="http://www.w3.org/1999/02/22-rdf-syntax-ns#"
   xmlns:svg="http://www.w3.org/2000/svg"
   xmlns="http://www.w3.org/2000/svg"
   xmlns:sodipodi="http://sodipodi.sourceforge.net/DTD/sodipodi-0.dtd"
   xmlns:inkscape="http://www.inkscape.org/namespaces/inkscape"
   width="776.77319"
   height="728.73816"
   id="svg2"
   version="1.1"
   inkscape:version="0.48.4 r9939"
   sodipodi:docname="tool.svg">
  <defs
     id="defs4" />
  <sodipodi:namedview
     id="base"
     pagecolor="#ffffff"
     bordercolor="#666666"
     borderopacity="1.0"
     inkscape:pageopacity="0.0"
     inkscape:pageshadow="2"
     inkscape:zoom="0.7"
     inkscape:cx="134.20542"
     inkscape:cy="344.21736"
     inkscape:document-units="px"
     inkscape:current-layer="layer1"
     showgrid="false"
     inkscape:window-width="1440"
     inkscape:window-height="878"
     inkscape:window-x="-8"
     inkscape:window-y="-8"
     inkscape:window-maximized="1"
     fit-margin-top="0"
     fit-margin-left="0"
     fit-margin-right="0"
     fit-margin-bottom="0" />
  <metadata
     id="metadata7">
    <rdf:RDF>
      <cc:Work
         rdf:about="">
        <dc:format>image/svg+xml</dc:format>
        <dc:type
           rdf:resource="http://purl.org/dc/dcmitype/StillImage" />
        <dc:title />
      </cc:Work>
    </rdf:RDF>
  </metadata>
  <g
     inkscape:label="Layer 1"
     inkscape:groupmode="layer"
     id="layer1"
     transform="translate(64.929472,-264.6875)">
    <path
       style="fill:#39275b;fill-opacity:1;stroke:#39275b;stroke-width:2.33757567px;stroke-linecap:butt;stroke-linejoin:miter;stroke-opacity:1"
       d="M 172.00533,890.08538 493.36651,608.83912 615.6601,601.47245 710.36413,511.51116 667.39009,435.40569 545.14006,511.61567 468.13958,420.1432 572.55545,318.83688 527.16653,266.22066 387.10846,358.64037 362.08185,486.6239 60.961021,755.70852"
       id="path2987"
       inkscape:connector-curvature="0" />
    <path
       sodipodi:type="arc"
       style="fill:#39275b;fill-opacity:1;stroke:#39275b;stroke-opacity:1"
       id="path2989"
       sodipodi:cx="190"
       sodipodi:cy="573.79077"
       sodipodi:rx="50"
       sodipodi:ry="50"
       d="m 240,573.79077 c 0,27.61424 -22.38576,50 -50,50 -27.61424,0 -50,-22.38576 -50,-50 0,-27.61424 22.38576,-50 50,-50 27.61424,0 50,22.38576 50,50 z"
       transform="matrix(2.3653457,0.58974692,-0.58974692,2.3653457,-52.825584,-598.95112)" />
    <path
       style="fill:#39275b;fill-opacity:1;stroke:#39275b;stroke-width:2.33757567;stroke-opacity:1"
       d="m 181.51617,868.63293 c -1.9431,-31.45382 -11.51826,-56.47736 -29.8585,-78.03148 -15.86569,-18.64605 -29.29879,-27.47492 -57.362872,-37.70176 l -18.196555,-6.631 144.356677,-128.88793 144.35669,-128.8879 12.2639,-63.94315 12.26389,-63.94313 66.12253,-43.3106 c 36.36741,-23.82084 67.56676,-43.77199 69.33187,-44.33592 2.38048,-0.7605 27.55666,25.7485 42.75397,45.01727 0.33527,0.42511 -18.35941,19.17147 -41.54378,41.65858 -23.18438,22.48707 -46.64781,45.33868 -52.141,50.78131 l -9.98758,9.89568 36.2815,43.12206 c 19.9549,23.71713 38.07027,44.91125 40.25645,47.09802 2.96193,2.96268 19.66,-5.43194 65.52277,-32.94032 l 61.54782,-36.91624 19.09304,35.3206 19.09305,35.32059 -45.71074,43.63438 -45.71071,43.63437 -61.14068,3.5794 -61.14063,3.5794 -151.35516,132.55133 c -83.24532,72.90322 -153.00366,133.56086 -155.01854,134.79467 -2.20403,1.34968 -3.82831,-0.4264 -4.07741,-4.45823 l 0,0 z"
       id="path2993"
       inkscape:connector-curvature="0" />
    <path
       style="fill:#39275b;fill-opacity:1;stroke:#39275b;stroke-width:2.33757567;stroke-opacity:1"
       d="m 179.81627,881.02128 c -0.0162,-0.23497 0.0645,-1.70469 0.17849,-3.26569 1.89651,-25.96166 -5.75698,-53.8193 -20.88353,-76.01298 -17.03153,-24.98865 -42.16616,-42.52346 -71.402438,-49.81288 -4.524285,-1.12804 -13.389036,-2.7258 -15.976041,-2.87956 -0.639092,-0.0376 -0.945699,-0.15865 -0.831243,-0.32625 0.09991,-0.14639 29.595892,-26.55217 65.546882,-58.67945 64.71357,-57.8308 65.37483,-58.41096 66.31093,-58.18179 l 0.94574,0.23066 -1.13605,1.0096 C 161.57747,669.53205 76.103528,746.13423 76.23454,746.32447 c 0.09992,0.14515 3.573581,1.48378 7.719175,2.97475 24.926945,8.9652 36.132495,14.13549 46.224145,21.3281 9.93437,7.08051 20.31622,17.82152 28.7134,29.70674 12.58065,17.8064 19.91368,39.06219 22.10435,64.07216 0.54502,6.22202 0.605,6.5726 1.35664,7.92833 0.5832,1.05182 1.87858,1.57964 2.82468,1.1509 1.68823,-0.76512 71.76711,-61.69733 185.35636,-161.16384 33.88225,-29.66958 34.21556,-29.95126 35.25334,-29.78893 l 1.04769,0.16388 -0.72898,0.67605 c -0.40094,0.37185 -50.39521,44.14396 -111.09837,97.27133 -60.70314,53.12736 -111.44758,97.54218 -112.76542,98.69959 -1.3869,1.21804 -2.40828,1.9243 -2.42501,1.67687 z"
       id="path2995"
       inkscape:connector-curvature="0" />
    <path
       style="fill:#39275b;fill-opacity:1;stroke:#39275b;stroke-opacity:1"
       d=""
       id="path2997"
       inkscape:connector-curvature="0" />
    <path
       style="fill:#39275b;fill-opacity:1;stroke:#39275b;stroke-opacity:1"
       d=""
       id="path2999"
       inkscape:connector-curvature="0" />
    <path
       style="fill:#39275b;fill-opacity:1;stroke:#39275b;stroke-width:2.33757567;stroke-opacity:1"
       d="m 142.32586,781.7682 c -2.87141,-2.79462 -8.7189,-7.68816 -12.18522,-10.19735 -4.15641,-3.00874 -9.33316,-6.28317 -10.27145,-6.49697 -0.93911,-0.21479 -1.7201,-0.83839 -1.33661,-1.06881 0.87784,-0.52743 12.40856,7.02531 17.85351,11.69428 2.35409,2.01862 7.70286,7.07534 8.36987,7.91293 0.96608,1.21309 -0.19159,0.33464 -2.4301,-1.84408 z"
       id="path3001"
       inkscape:connector-curvature="0" />
    <path
       style="fill:#39275b;fill-opacity:1;stroke:#39275b;stroke-width:2.33757567;stroke-opacity:1"
       d="m 143.19297,782.60128 c -5.75042,-5.72013 -17.86958,-15.00468 -21.06091,-16.13489 -0.58733,-0.20808 -1.45497,-0.68009 -1.92803,-1.04904 -0.47301,-0.36893 -1.09458,-0.8283 -1.38122,-1.02081 -0.30979,-0.20806 -0.36792,-0.36761 -0.14336,-0.39343 0.89557,-0.10292 9.35436,5.14786 14.03913,8.71472 3.62452,2.75965 12.49673,10.88224 12.38333,11.33704 -0.0679,0.2715 -0.52385,-0.0756 -1.90894,-1.45359 l 0,0 z"
       id="path3003"
       inkscape:connector-curvature="0" />
    <path
       style="fill:#39275b;fill-opacity:1;stroke:#39275b;stroke-opacity:1"
       d=""
       id="path3005"
       inkscape:connector-curvature="0" />
    <path
       style="fill:#39275b;fill-opacity:1;stroke:#39275b;stroke-width:2.33757567;stroke-opacity:1"
       d="m 142.93239,782.38574 c -3.76843,-3.68361 -13.30805,-11.49077 -14.36168,-11.75344 -0.19781,-0.0492 -0.45284,-0.23698 -0.56685,-0.41709 -0.24492,-0.38681 -4.9752,-3.43111 -7.45781,-4.79967 -0.9561,-0.52707 -1.83345,-1.09854 -1.94964,-1.26995 -0.9726,-1.43453 8.6612,4.41297 14.12224,8.5719 3.62657,2.76191 12.4966,10.88276 12.38326,11.33738 -0.0704,0.28251 -0.5519,-0.0882 -2.16952,-1.66913 z"
       id="path3007"
       inkscape:connector-curvature="0" />
    <path
       style="fill:#39275b;fill-opacity:1;stroke:#39275b;stroke-width:2.33757567;stroke-opacity:1"
       d="m 182.50483,872.00713 c -0.40489,-0.72898 -0.74546,-2.85261 -1.13066,-7.05033 -0.78712,-8.5782 -1.44516,-13.00218 -3.02123,-20.312 -4.72274,-21.90398 -13.98652,-40.09254 -28.89116,-56.72507 -5.87281,-6.55366 -12.6655,-13.05741 -13.39432,-12.82455 -0.17407,0.0556 -0.28619,-0.02 -0.24914,-0.16885 0.0581,-0.23504 -1.01066,-1.01051 -1.21252,-0.87953 -0.0415,0.0269 -0.21933,-0.26093 -0.39549,-0.63954 -0.17618,-0.37855 -0.26957,-0.47757 -0.20745,-0.22014 0.0698,0.28873 -0.15782,0.1517 -0.59316,-0.35699 -1.59476,-1.86415 -9.18864,-6.71602 -15.84482,-10.12358 -7.83329,-4.01016 -16.58293,-7.58472 -33.589362,-13.72254 -4.565835,-1.64786 -7.492768,-2.83064 -7.349807,-2.97006 0.135608,-0.13218 0.06061,-0.17545 -0.172998,-0.10041 -0.22565,0.0722 -0.328065,0.26813 -0.227376,0.43561 0.100626,0.16748 4.436691,1.88334 9.635653,3.81303 l 9.452702,3.50858 -8.76938,-1.99588 c -4.823146,-1.09777 -10.203093,-2.18642 -11.955435,-2.4193 -1.752363,-0.23284 -3.213558,-0.47769 -3.247152,-0.54392 -0.119946,-0.23686 116.271025,-104.20117 125.658045,-112.24188 4.46406,-3.82378 5.97134,-4.8822 6.26258,-4.39752 0.0397,0.0665 -17.11398,15.47063 -38.11981,34.23151 -57.73435,51.56417 -89.748031,80.36615 -87.717753,78.9177 0.367265,-0.262 29.020823,-25.79977 63.674603,-56.75062 l 63.00686,-56.27421 100.20228,24.9822 c 80.12178,19.97567 100.12779,25.0396 99.83043,25.26959 -0.20448,0.15813 -14.17678,12.38257 -31.04942,27.16541 -104.74893,91.77505 -186.01213,162.46166 -187.8865,163.43258 -1.03632,0.53684 -2.03697,0.15148 -2.69829,-1.03914 z"
       id="path3009"
       inkscape:connector-curvature="0" />
    <path
       style="fill:#39275b;fill-opacity:1;stroke:#39275b;stroke-opacity:1"
       d=""
       id="path3011"
       inkscape:connector-curvature="0" />
    <path
       style="fill:#39275b;fill-opacity:1;stroke:#39275b;stroke-width:2.33757567;stroke-opacity:1"
       d="m 182.87914,872.68383 c -0.72924,-0.71072 -1.06158,-2.43437 -1.56895,-8.13712 -2.40587,-27.04159 -10.125,-48.40645 -24.38888,-67.50299 -5.71088,-7.64578 -14.26501,-16.87728 -19.70376,-21.26404 -1.22568,-0.98861 -3.04317,-2.46701 -4.03887,-3.28539 -3.5361,-2.90634 -10.06304,-6.97737 -16.1455,-10.07037 -7.22317,-3.67309 -15.71932,-7.13999 -31.801819,-12.97696 -5.240126,-1.90185 -8.74157,-3.30034 -8.602566,-3.43593 0.132372,-0.12913 0.05492,-0.17179 -0.175859,-0.0976 -0.225659,0.0722 -0.328355,0.2617 -0.228145,0.42127 0.100153,0.15965 4.438736,1.88581 9.641038,3.836 l 9.458707,3.54582 -9.066034,-2.07059 c -4.986296,-1.1389 -10.302135,-2.22588 -11.813017,-2.41555 -1.510815,-0.18975 -2.841257,-0.41114 -2.956471,-0.49216 -0.302597,-0.21276 113.626796,-102.12426 125.510756,-112.27125 4.48188,-3.82682 5.97439,-4.87438 6.26226,-4.39533 0.0397,0.0662 -15.97274,14.45444 -35.58319,31.9741 -35.41161,31.63608 -85.342644,76.42803 -86.753217,77.82426 -3.2645,3.23133 1.080748,-0.63681 112.053427,-99.74969 l 11.11668,-9.92862 100.19203,24.98068 100.19205,24.98068 -0.74865,0.6499 c -0.41174,0.35742 -17.11537,14.98086 -37.11917,32.49652 -108.81578,95.28091 -179.50685,156.74964 -181.41297,157.74581 -0.76052,0.39743 -1.68983,0.2527 -2.31986,-0.3613 z"
       id="path3013"
       inkscape:connector-curvature="0" />
    <path
       style="fill:#39275b;fill-opacity:1;stroke:#39275b;stroke-width:2.33757567;stroke-opacity:1"
       id="path3049"
       d="m 164.38839,780.41921 c -0.89893,4.48062 -0.4725,8.94483 0.98464,13.24318 1.36777,3.2008 1.63387,6.52497 1.35277,9.94853 -0.72166,2.60467 0.0228,4.62007 1.0552,6.94942 1.43598,1.73734 2.86432,3.51357 4.36548,5.21208 1.7355,2.1309 2.51616,4.76478 3.74816,7.18332 1.20722,2.42996 1.20073,5.19572 2.08843,7.72705 0.57674,3.042 2.37574,5.51028 3.54596,8.301 0.97274,2.27354 2.84564,3.83545 4.41589,5.64674 1.26989,2.4617 2.3272,4.93567 3.69392,7.34557 1.25254,2.88 1.6473,6.03065 1.70746,9.14509 -0.1083,2.23609 0.0123,1.13928 -0.35199,3.29149 0,0 -24.14471,5.58564 -24.14471,5.58564 l 0,0 c 0.57492,-1.6585 0.3749,-0.7616 0.52699,-2.70589 0.0209,-2.69288 -0.29003,-5.43119 -1.40689,-7.909 -1.29478,-2.2421 -2.16181,-4.64965 -3.54435,-6.82269 -1.85022,-1.92057 -3.55372,-3.98458 -4.63428,-6.45221 -1.22601,-2.82688 -2.89627,-5.44013 -3.63302,-8.47662 -0.79891,-2.45143 -0.89711,-5.0664 -1.97213,-7.42128 -1.07733,-2.2689 -1.9161,-4.66405 -3.59112,-6.59039 -1.57027,-1.92397 -3.37017,-3.70557 -4.58154,-5.88467 -1.18023,-2.6427 -2.11312,-5.28106 -1.3283,-8.20704 0.37306,-3.10069 0.20762,-6.05959 -1.01225,-8.98815 -1.41346,-4.60839 -2.00011,-9.39769 -1.3522,-14.20371 0,0 24.06797,-5.91744 24.06797,-5.91744 z"
       inkscape:connector-curvature="0" />
    <path
       style="fill:#39275b;fill-opacity:1;stroke:#39275b;stroke-width:2.33757567;stroke-opacity:1"
       id="path3051"
       d="m 144.52445,808.14244 c -4.24492,-2.10497 -8.71166,-3.92442 -12.77589,-6.3717 -2.83726,-1.97807 -5.96984,-3.67468 -8.68999,-5.8144 -2.6889,-1.78886 -4.54768,-4.48351 -6.13337,-7.24088 -1.56041,-2.3749 -2.70376,-4.98012 -4.30926,-7.33153 -1.14973,-2.34037 -2.17579,-4.75527 -3.17769,-7.16676 0,0 23.77638,-7.12648 23.77638,-7.12648 l 0,0 c 0.96986,2.26597 1.85561,4.58496 3.01594,6.75576 1.51631,2.43779 2.79951,5.00318 4.32097,7.43545 1.52999,2.49366 3.3074,4.71665 5.82231,6.28849 2.817,1.88878 5.54599,3.91713 8.49318,5.59777 4.04187,2.20504 8.21115,4.40307 12.63984,5.68879 0,0 -22.98242,9.28549 -22.98242,9.28549 z"
       inkscape:connector-curvature="0" />
    <path
       style="fill:#39275b;fill-opacity:1;stroke:#39275b;stroke-width:2.33757567;stroke-opacity:1"
       id="path3053"
       d="m 146.59286,786.81659 c -0.83317,-0.28264 -1.50995,-0.83687 -2.21741,-1.33632 -0.67494,-0.54596 -1.33974,-1.10315 -1.93389,-1.73714 -0.48727,-0.5654 -0.85223,-1.21887 -1.22935,-1.85908 -0.31437,-0.5596 -0.64418,-1.10744 -1.0508,-1.60509 -0.44068,-0.48954 -0.87676,-0.97828 -1.36372,-1.42238 -0.47458,-0.39878 -0.90544,-0.84463 -1.36982,-1.25621 -0.51528,-0.44155 -1.02966,-0.88723 -1.58577,-1.27721 -0.73793,-0.44074 -1.44692,-0.92725 -2.20961,-1.32485 -0.66703,-0.37229 -1.35756,-0.69676 -2.02164,-1.07465 -0.59641,-0.36262 -1.18995,-0.73147 -1.73507,-1.16864 -0.4968,-0.38072 -1.01556,-0.73237 -1.51426,-1.11017 -0.54732,-0.36196 -1.01432,-0.82585 -1.54444,-1.2097 -0.69329,-0.40991 -1.42318,-0.76264 -2.17167,-1.06089 -0.59728,-0.2496 -1.24538,-0.34527 -1.84491,-0.58286 -0.46329,-0.20537 -0.94331,-0.36746 -1.42831,-0.51246 -0.37219,-0.21735 -0.78419,-0.34563 -1.16916,-0.53377 -0.68279,-0.40633 -1.39181,-0.75807 -2.13123,-1.04844 -1.05546,-0.3781 -2.10979,-0.75851 -3.15894,-1.15383 -0.83892,-0.36817 -1.68906,-0.70949 -2.5582,-0.9995 -0.56269,-0.14541 -1.05357,-0.45855 -1.56947,-0.71259 -0.47602,-0.13802 -0.83427,-0.46212 -1.24599,-0.71563 -0.40908,-0.2656 -0.77354,-0.59153 -1.17254,-0.86989 -0.61001,-0.56572 -1.30417,-1.0258 -1.96219,-1.53359 -1.0831,-0.84533 -2.28985,-1.50926 -3.44707,-2.24369 -0.92502,-0.68213 -1.95663,-1.18082 -2.971113,-1.70844 -0.804389,-0.88172 -0.322097,-0.28967 2.921163,-1.17383 0.10032,-0.0275 0.16642,0.12581 0.25539,0.17978 0.49272,0.29825 0.90847,0.53141 1.39014,0.86971 1.43454,1.01927 2.89001,2.00205 4.39597,2.91274 1.3737,0.86957 2.75113,1.68499 4.23227,2.35863 1.34883,0.49529 2.63152,1.13597 3.921,1.76344 1.42818,0.65175 2.87239,1.26363 4.32439,1.86008 2.06965,0.78565 4.17232,1.48074 6.26039,2.21574 1.03882,0.39921 2.13196,0.64359 3.15441,1.08381 1.37275,0.8993 -0.96223,0.95851 -2.63303,1.42173 -0.0761,0.0211 -0.11612,-0.10735 -0.17914,-0.15499 -0.0845,-0.064 -0.17499,-0.11953 -0.26247,-0.17916 -1.16799,-0.75627 -2.37767,-1.445 -3.56784,-2.16519 -1.52553,-0.96036 -3.0767,-1.87838 -4.58205,-2.87095 -0.8846,-0.6161 -1.86769,-1.0546 -2.85296,-1.47947 -0.73202,-0.30825 -1.41696,-0.69826 -2.06832,-1.15072 -0.53164,-0.29059 -0.96889,-0.70929 -1.45592,-1.06058 -0.74398,-0.64271 -1.61163,-1.0795 -2.48668,-1.50938 -0.80016,-0.3826 -1.60324,-0.75779 -2.40549,-1.13599 -0.74172,-0.32224 -1.51483,-0.56103 -2.27357,-0.83945 -0.70903,-0.26035 -1.44031,-0.44362 -2.1337,-0.74424 -0.52759,-0.21749 -1.03751,-0.46994 -1.57165,-0.67255 -1.4051,-0.51389 -1.70956,-0.22321 2.42847,-1.12778 0.096,-0.0211 0.15156,0.12542 0.22686,0.18882 0.0942,0.0793 0.18764,0.15952 0.28137,0.2393 0.87961,0.6899 1.76129,1.37806 2.67259,2.02591 1.23394,0.88218 2.51533,1.67886 3.86758,2.36592 1.08101,0.52169 2.15872,1.05532 3.26392,1.52496 0.51629,0.27687 0.99372,0.61891 1.50089,0.9127 0.40796,0.24746 0.83863,0.46598 1.23973,0.7246 0.41579,0.27929 0.78962,0.59607 1.23614,0.83033 0.45882,0.31844 0.94539,0.60069 1.38335,0.94851 0.30607,0.26952 0.79671,0.43474 0.9183,0.85571 0.14815,1.21965 0.0954,0.29647 -3.04736,0.98144 -0.0542,0.0119 -0.0846,-0.0719 -0.12691,-0.10752 -0.21595,-0.18105 -0.43871,-0.35282 -0.65481,-0.53388 -0.50513,-0.41423 -1.01196,-0.82279 -1.54957,-1.19453 -0.59275,-0.41424 -1.24337,-0.72737 -1.86747,-1.0896 -0.82038,-0.37054 -1.55644,-0.88439 -2.31577,-1.36014 -0.57176,-0.34491 -0.80809,-0.94504 -1.1129,-1.50544 -0.0245,-0.29639 -0.54347,-0.66365 -0.59768,-0.92181 -0.0188,-0.0897 -0.0893,-0.24922 -6.2e-4,-0.27566 1.04254,-0.31495 2.1292,-0.45915 3.19381,-0.68871 1.8837,1.21567 3.77849,2.41429 5.67322,3.61331 2.18127,1.39891 4.38891,2.75865 6.51815,4.23645 1.04752,0.70057 2.08222,1.42551 3.06474,2.21556 0.1986,0.23717 0.69004,0.39175 0.77763,0.72666 0.0169,0.0645 0.0106,0.13263 0.017,0.19904 0,0 -3.06013,0.6132 -3.06013,0.6132 l 0,0 c 0.0235,0.0361 0.044,0.0744 0.0704,0.10865 0.0107,0.0147 -0.0129,-0.035 -0.0253,-0.0494 -0.18407,-0.22609 -0.43399,-0.38958 -0.64904,-0.58192 -0.95878,-0.78387 -1.96479,-1.5089 -2.97266,-2.22779 -2.07923,-1.50239 -4.24292,-2.8842 -6.40716,-4.25993 -1.92985,-1.20504 -3.85444,-2.44123 -5.88457,-3.47038 0.92503,-0.28252 1.8786,-0.4846 2.77512,-0.84762 0.0796,-0.0321 -0.0771,-0.15389 -0.12391,-0.22581 -0.0216,-0.0329 0.0257,0.0747 0.0471,0.10783 0.17423,0.27015 0.38663,0.51801 0.51459,0.8178 0.28623,0.51937 0.5271,1.04883 1.05962,1.36267 0.74259,0.49319 1.48868,0.97503 2.30268,1.34599 0.64009,0.35257 1.29084,0.68655 1.88736,1.11196 0.54238,0.37615 1.04453,0.80182 1.55883,1.21471 0.23512,0.18173 0.26851,0.2139 0.50763,0.37496 0.0542,0.0377 0.10799,0.0761 0.16694,0.1054 0.0339,0.0177 0.14567,0.0213 0.10947,0.0324 -2.93843,0.9279 -3.27694,-0.0946 -2.8536,1.00045 -0.15208,-0.20368 -0.56712,-0.44195 -0.81084,-0.64842 -0.44142,-0.32206 -0.90446,-0.61808 -1.36786,-0.90666 -0.43612,-0.25449 -0.82054,-0.57718 -1.25252,-0.83754 -0.41241,-0.23582 -0.80952,-0.49518 -1.22464,-0.72611 -0.48987,-0.29583 -0.96113,-0.62367 -1.46947,-0.88683 -1.07704,-0.50369 -2.13737,-1.04337 -3.20514,-1.56584 -1.35556,-0.71103 -2.65007,-1.51784 -3.9027,-2.3979 -0.92524,-0.65567 -1.82658,-1.34516 -2.73028,-2.02998 -0.0971,-0.0791 -0.19497,-0.15727 -0.2913,-0.23717 -0.0874,-0.0724 -0.35924,-0.16397 -0.26032,-0.21982 2.51208,-1.41795 1.9744,-1.50294 3.36439,-0.97564 0.53314,0.21363 1.054,0.45601 1.58332,0.67871 0.68429,0.28867 1.40592,0.47269 2.09884,0.73965 0.76817,0.27707 1.55492,0.50888 2.29266,0.86354 0.79455,0.38358 1.59415,0.75616 2.38484,1.14785 0.89332,0.44075 1.75277,0.93117 2.53852,1.54841 0.47664,0.36001 0.94064,0.73498 1.44969,1.0506 0.64338,0.43082 1.31478,0.80693 2.03114,1.1047 0.97957,0.44129 1.94679,0.90999 2.81697,1.54888 1.48512,1.00475 3.02157,1.92686 4.54765,2.86735 1.22099,0.717 2.45788,1.40625 3.6749,2.13003 0.0932,0.0513 0.18121,0.11384 0.2796,0.15399 0.0447,0.0187 0.18927,0.002 0.14411,0.0191 -3.40199,1.34571 -2.00607,1.50616 -3.10205,0.90722 -0.98729,-0.43047 -2.03358,-0.71036 -3.03339,-1.11005 -2.07992,-0.76034 -4.1793,-1.46471 -6.25765,-2.22901 -1.47822,-0.58419 -2.94883,-1.18384 -4.38861,-1.85866 -1.27983,-0.63249 -2.56741,-1.2439 -3.89801,-1.76465 -1.49133,-0.69783 -2.83599,-1.51447 -4.22282,-2.39831 -1.51165,-0.92318 -2.96869,-1.92437 -4.43965,-2.91006 -0.4679,-0.29567 -0.93601,-0.59533 -1.44745,-0.81305 -0.0825,-0.035 -0.3361,-0.0472 -0.25491,-0.0852 2.67478,-1.25074 2.06344,-1.78102 2.84338,-1.08364 0.96397,0.58342 1.98041,1.08232 2.89014,1.75492 1.17735,0.73294 2.3959,1.40765 3.49883,2.25344 0.67017,0.50248 1.36779,0.96654 2.00657,1.5093 0.38741,0.28789 0.76273,0.59267 1.17056,0.85227 0.39458,0.26123 0.77934,0.52224 1.22723,0.68892 0.50166,0.25783 0.99948,0.5234 1.5453,0.67944 0.8516,0.31373 1.68488,0.67287 2.5226,1.02146 1.05227,0.39991 2.11528,0.76992 3.17331,1.15423 0.74744,0.30416 1.45846,0.67707 2.17606,1.04486 0.38975,0.15949 0.77145,0.33448 1.15881,0.49803 0.48297,0.15684 0.95723,0.33668 1.42757,0.52794 0.61136,0.2007 1.24076,0.3491 1.83459,0.60197 0.75401,0.32675 1.5003,0.68849 2.19245,1.13221 0.52526,0.3955 1.01922,0.83156 1.5612,1.20536 0.50493,0.37158 1.01372,0.73773 1.51212,1.11813 0.5443,0.41415 1.11946,0.78691 1.71356,1.12567 0.66546,0.362 1.33964,0.70699 2.0007,1.07703 0.76438,0.4187 1.49933,0.89106 2.23505,1.35756 0.55906,0.40682 1.09432,0.84475 1.61326,1.30162 0.46437,0.41207 0.8884,0.86561 1.36475,1.26424 0.49245,0.45882 0.93648,0.96313 1.38361,1.46562 0.4017,0.5182 0.74106,1.07389 1.05577,1.6489 0.36327,0.6204 0.7238,1.24966 1.19749,1.7943 0.59452,0.60477 1.23229,1.16499 1.90023,1.68767 0.69365,0.49315 1.3833,1.0181 2.2324,1.20842 0,0 -2.87283,1.16067 -2.87283,1.16067 z"
       inkscape:connector-curvature="0" />
    <path
       style="fill:#39275b;fill-opacity:1;stroke:#39275b;stroke-width:2.33757567;stroke-opacity:1"
       id="path3055"
       d="m 105.82305,758.70995 c -0.87833,-0.46405 -1.68383,-1.04789 -2.53319,-1.5613 -1.29437,-0.71357 -2.50699,-1.55773 -3.761612,-2.33497 -0.41749,-0.34854 -0.932175,-0.5505 -1.384502,-0.83991 -0.15895,-0.10162 -0.295796,-0.23421 -0.44478,-0.34989 -0.413669,-0.3055 -0.777104,-0.65268 -1.227228,-0.9077 -0.399612,-0.20926 -0.835364,-0.32968 -1.26902,-0.44479 -0.530592,-0.12502 -1.051303,-0.29901 -1.593547,-0.36295 -1.809598,0.39012 3.068103,-0.68487 2.45744,-0.79629 -0.05162,-0.0118 0.02764,0.0566 0.121862,0.14217 0.263935,0.35601 0.628867,0.59904 0.965927,0.87573 0.43997,0.3879 0.216776,0.19931 0.669345,0.56626 0.67003,0.44694 1.298964,0.94749 1.937064,1.43659 0.431721,0.36537 0.859251,0.74396 1.337151,1.04856 0.41658,0.19643 0.83702,0.38481 1.26009,0.56917 1.22604,0.55589 0.41457,0.2814 -2.749795,1.18348 -0.08035,0.023 -0.145351,-0.0827 -0.220193,-0.12037 -0.09598,-0.048 -0.194384,-0.0909 -0.291412,-0.13659 -0.120068,-0.0607 -0.240135,-0.12097 -0.36016,-0.18163 -0.850183,-0.51504 -1.768552,-0.90273 -2.635938,-1.38219 -0.845166,-0.47544 -1.7195,-0.88924 -2.625253,-1.23464 -0.758234,-0.27872 -1.539395,-0.48648 -2.320849,-0.68804 -0.661477,-0.24684 -1.315878,-0.54106 -1.905337,-0.93252 -0.547831,-0.37246 -1.136896,-0.67325 -1.724062,-0.97691 -0.813865,-0.4089 -1.690654,-0.66312 -2.563013,-0.91223 -0.894901,-0.24838 -1.797516,-0.46745 -2.699645,-0.68755 -0.565742,-0.16665 -1.168348,-0.2276 -1.713786,-0.45577 -0.366018,-0.16252 -0.727302,-0.31961 -1.078477,-0.51109 -0.35876,-0.19134 -0.747596,-0.31189 -1.136596,-0.42406 -0.470139,-0.12921 -0.943217,-0.24725 -1.41627,-0.36515 -0.427194,-0.099 -0.860938,-0.27388 -1.297889,-0.147 0.933138,-0.25774 1.861089,-0.53504 2.799424,-0.77325 0.05658,-0.0143 -0.103897,0.0571 -0.144509,0.0994 -0.199764,0.20695 -0.203385,0.53456 -0.218717,0.79986 0.01126,0.44578 0.205257,0.86624 0.464856,1.22153 0.282863,0.37659 0.624219,0.69896 1.031348,0.9355 0.37484,0.15426 0.660786,0.44796 1.010496,0.644 0.435851,0.22264 0.910667,0.35087 1.380655,0.4789 0.547701,0.14183 1.096702,0.27855 1.644669,0.4193 0.962488,0.3354 1.936053,0.63546 2.916324,0.91407 0.752083,0.21172 1.510116,0.40104 2.268798,0.58732 0.504141,0.12058 1.00617,0.24983 1.509365,0.3743 0.568606,0.14273 1.137645,0.28375 1.706276,0.42647 0.135613,0.0321 0.265359,0.0878 0.406997,0.0478 0.02946,-0.007 0.102923,-0.0656 0.07405,-0.0555 -4.711735,1.64297 -2.078885,1.6986 -3.09914,0.91924 -0.417475,-0.33706 -0.836265,-0.67365 -1.275253,-0.98264 -0.457271,-0.4049 -0.950961,-0.74437 -1.462503,-1.07357 -0.557293,-0.35407 -1.200878,-0.52997 -1.829194,-0.71195 -0.66939,-0.25987 -1.345996,-0.49724 -2.033233,-0.7052 -0.802631,-0.23993 -1.651242,-0.2528 -2.479244,-0.35048 -0.568937,-0.0388 -1.12123,-0.20784 -1.686379,-0.26733 0.98441,-0.38275 1.950158,-0.81759 2.953239,-1.14832 0.09371,-0.0308 0.189734,0.0546 0.285139,0.0804 0.194716,0.0558 0.390088,0.10927 0.585447,0.16297 1.035429,0.28228 2.075973,0.545 3.115974,0.80986 2.223017,0.56352 4.450123,1.11059 6.681145,1.64148 1.097436,0.252 2.190492,0.50854 3.259351,0.86324 1.055251,0.35299 2.127467,0.65234 3.204691,0.93007 1.407673,0.36792 1.503533,-0.0167 -2.415749,1.20968 -0.05332,0.0168 -0.08552,-0.0726 -0.131952,-0.10366 -0.06347,-0.0423 -0.131351,-0.077 -0.197089,-0.11584 -0.629817,-0.40435 -1.228047,-0.85387 -1.840993,-1.28333 -0.820674,-0.55887 -1.665817,-1.0875 -2.518535,-1.59713 -0.801674,-0.45421 -1.672849,-0.75428 -2.552919,-1.01366 -0.743879,-0.1734 -1.454614,-0.45276 -2.177104,-0.6958 -0.590968,-0.1955 -1.19286,-0.35446 -1.794828,-0.51161 -0.556432,-0.12933 -1.102047,-0.30794 -1.668943,-0.38383 -0.649638,-0.003 -1.296514,-0.0473 -1.94009,-0.1348 -0.46961,-0.0689 -0.931604,-0.17895 -1.392211,-0.2918 -0.40558,-0.10081 -0.81076,-0.20321 -1.216066,-0.30519 -0.404014,-0.10137 -0.808173,-0.20235 -1.212314,-0.30322 -0.436231,-0.11803 -0.885071,-0.19229 -1.303299,-0.36588 -0.442655,-0.16037 -0.832269,-0.42409 -1.258099,-0.62088 -0.05552,-0.038 -0.247863,-0.156 -0.295471,-0.22594 -0.03393,-0.0495 -0.122991,-0.35125 -0.04156,-0.3802 2.718758,-0.96606 2.055031,-1.08818 3.226395,-0.82832 0.392632,0.0382 0.687644,0.22927 0.983967,0.46962 0.266076,0.18437 0.487645,0.43688 0.659292,0.71055 0.184544,0.27561 0.381638,0.53614 0.576883,0.8033 0.282253,0.26694 0.345727,0.61656 0.345847,0.98831 -0.03106,0.30366 -0.205831,0.66745 -0.52648,0.76741 -1.036481,0.3231 -2.082953,0.61318 -3.124388,0.91979 -0.424878,0.0331 -0.843285,-0.061 -1.254901,-0.15361 -0.365599,-0.13113 -0.747489,-0.0932 -1.127199,-0.12981 -0.35017,-0.0995 -0.636768,-0.31632 -0.95101,-0.48826 -0.326027,-0.26077 -0.699584,-0.43578 -1.08896,-0.57758 -0.392766,-0.13218 -0.795705,-0.23069 -1.197437,-0.3311 -0.05942,8e-5 -0.118959,0.002 -0.178336,2.3e-4 -0.207535,-0.005 -0.183812,-0.0274 -0.382382,0.0259 -0.06312,0.0175 -0.247648,0.084 -0.184566,0.0668 2.727907,-0.75252 3.636674,-1.17201 2.585463,-0.6987 -0.309017,0.15399 -0.593608,0.35014 -0.893525,0.52081 -0.263796,0.19032 -0.526153,0.39336 -0.681242,0.68417 -0.129983,0.32442 -0.0016,0.59882 0.119795,0.89777 0.165735,0.31417 0.317003,0.63372 0.519976,0.92635 0.234565,0.38492 0.476648,0.76674 0.720996,1.14596 0.181748,0.34194 0.31048,0.70974 0.492622,1.05194 0.255385,0.57158 0.539904,1.12855 0.81858,1.6888 0.459235,0.80082 0.814896,1.64957 1.30484,2.43311 0.612257,1.07678 1.400008,2.03239 2.200395,2.972 1.088265,1.27757 2.250185,2.4924 3.300161,3.80165 0.924564,1.27822 1.889638,2.52414 2.861216,3.76631 0.510634,0.6529 1.076592,1.2584 1.615457,1.88683 0,0 -2.90424,0.96594 -2.90424,0.96594 l 0,0 c -0.522678,-0.63831 -1.074936,-1.253 -1.568178,-1.91531 -0.951499,-1.24933 -1.891939,-2.50619 -2.821986,-3.77189 -1.062927,-1.29953 -2.220069,-2.51881 -3.321588,-3.78561 -0.819184,-0.94799 -1.631772,-1.91052 -2.255769,-3.00256 -0.490161,-0.79403 -0.867054,-1.64456 -1.333959,-2.45196 -0.286979,-0.55779 -0.575004,-1.1147 -0.854953,-1.6761 -0.167587,-0.3392 -0.304357,-0.69257 -0.476904,-1.02849 -0.235188,-0.38417 -0.487828,-0.75523 -0.727217,-1.13673 -0.19963,-0.31679 -0.373353,-0.64687 -0.536952,-0.98354 -0.151752,-0.36398 -0.285441,-0.71952 -0.178455,-1.11993 0.102429,-0.39012 0.355224,-0.616 0.645974,-0.87589 0.279314,-0.21582 0.613432,-0.34519 0.889067,-0.568 1.239784,-0.59959 2.695888,-1.24581 4.093228,-0.97672 0.408438,0.10692 0.818987,0.21143 1.211967,0.36792 0.391117,0.16685 0.753689,0.37922 1.106902,0.61559 0.282493,0.16319 0.56763,0.34365 0.902982,0.36195 0.38583,0.0215 0.763984,0.0594 1.137288,0.16796 0.396459,0.0741 0.803474,0.13968 1.197876,0.0166 -0.915442,0.27085 -1.830907,0.54174 -2.746359,0.81259 0.152507,-0.0472 0.327342,-0.10098 0.454303,-0.20451 0.09522,-0.0775 0.0939,-0.11557 0.135696,-0.2242 0.01535,-0.32212 -0.05464,-0.55685 -0.290094,-0.78968 -0.206423,-0.26588 -0.386578,-0.5468 -0.585237,-0.81844 -0.173796,-0.23919 -0.378405,-0.4508 -0.624942,-0.6164 -0.273744,-0.20051 -0.580564,-0.29243 -0.921178,-0.30119 -1.165375,0.0898 0.537313,-0.0315 2.717236,-0.83644 0.146954,-0.0541 -0.334254,-0.32493 -0.02045,-0.12702 0.052,0.0322 0.106728,0.06 0.160169,0.09 0.408799,0.20864 0.802688,0.44905 1.241961,0.59193 0.427411,0.13069 0.865667,0.22092 1.298213,0.33296 0.404284,0.10098 0.808566,0.2019 1.212714,0.3034 0.404403,0.10177 0.808746,0.20373 1.213782,0.30287 0.451617,0.10742 0.905405,0.20885 1.366842,0.26521 0.64532,0.0749 1.29357,0.0864 1.939752,0.14797 0.567617,0.11149 1.126197,0.26388 1.686187,0.4084 0.602085,0.15932 1.198876,0.33839 1.789157,0.5374 0.715715,0.24813 1.428815,0.50152 2.163288,0.69043 0.888087,0.27977 1.759133,0.61543 2.563537,1.09077 0.853426,0.52414 1.713367,1.04137 2.537388,1.61071 0.616209,0.42602 1.219707,0.87357 1.868292,1.25009 0.07222,0.0436 0.144495,0.0872 0.216869,0.13044 0.04792,0.0288 0.194617,0.063 0.143731,0.0865 -2.714731,1.24813 -1.952333,1.42823 -3.340695,1.00087 -1.068722,-0.31038 -2.142097,-0.60611 -3.201629,-0.94714 -1.050783,-0.33712 -2.124661,-0.58664 -3.191532,-0.86726 -2.199712,-0.5738 -4.403753,-1.13074 -6.612113,-1.67023 -1.072347,-0.26017 -2.144014,-0.52248 -3.219779,-0.7683 -0.212972,-0.0484 -0.426359,-0.0946 -0.639495,-0.14216 -0.111155,-0.0257 -0.435588,-0.0254 -0.333627,-0.0781 0.909587,-0.46306 1.881189,-0.79265 2.821799,-1.18899 0.530161,0.1414 1.081296,0.19369 1.622658,0.273 0.843107,0.0937 1.704042,0.12715 2.514985,0.39729 0.682574,0.2159 1.350865,0.47026 2.027106,0.7044 0.649194,0.19987 1.309721,0.39696 1.875904,0.78554 0.515984,0.32741 0.977976,0.71523 1.457959,1.09202 0.448198,0.32446 0.891396,0.65665 1.323486,1.00217 1.122871,1.13414 -2.130471,1.68883 -3.166466,1.26167 -0.570415,-0.1412 -1.140416,-0.28406 -1.71099,-0.42451 -0.502833,-0.12469 -1.006559,-0.24583 -1.507789,-0.37694 -0.745794,-0.19528 -1.489881,-0.39744 -2.229943,-0.61358 -0.982338,-0.28741 -1.956517,-0.60056 -2.937093,-0.89323 -0.559164,-0.13214 -1.119254,-0.26214 -1.671396,-0.42193 -0.486775,-0.14306 -0.977828,-0.29149 -1.416163,-0.55399 -0.336595,-0.21838 -0.652203,-0.46915 -1.011984,-0.65138 -0.413271,-0.2878 -0.772624,-0.64276 -1.067217,-1.0523 -0.280489,-0.42389 -0.498397,-0.89733 -0.520775,-1.41279 0.05343,-1.96563 0.894624,-1.43396 3.384737,-2.14566 0.454041,0.0169 0.885778,0.14353 1.323745,0.25704 0.479164,0.11991 0.960637,0.23235 1.433841,0.37437 0.39937,0.12758 0.792889,0.27356 1.159503,0.47966 0.343251,0.17834 0.70459,0.31951 1.059164,0.47367 0.550181,0.17357 1.119317,0.28116 1.675239,0.4346 0.895304,0.22835 1.790344,0.45847 2.68038,0.70664 0.890122,0.25851 1.781167,0.53036 2.608157,0.95678 0.599902,0.29966 1.185171,0.62756 1.742495,1.0015 0.583892,0.35421 1.21198,0.64926 1.866579,0.8456 0.780575,0.20896 1.556472,0.43867 2.310537,0.73074 0.90658,0.36624 1.789134,0.78529 2.640231,1.26785 0.878562,0.45971 1.767377,0.90036 2.643977,1.36459 0.25495,0.11747 0.42689,0.19794 0.67848,0.30912 0.0787,0.034 0.31256,0.0633 0.23574,0.10189 -2.697642,1.34014 -1.9077,1.57428 -3.029673,1.03585 -0.431447,-0.19674 -0.881377,-0.36192 -1.280907,-0.61988 -0.460249,-0.33157 -0.886412,-0.70683 -1.316362,-1.07624 -0.63423,-0.49529 -1.2792,-0.97533 -1.931155,-1.44726 -0.579527,-0.4769 -1.192916,-0.91895 -1.698172,-1.47766 -1.046685,-1.4074 1.92073,-1.62926 3.200847,-1.50409 0.545233,0.1077 1.082948,0.25076 1.620926,0.38974 0.447416,0.13081 0.891808,0.28064 1.291813,0.52588 0.438394,0.28205 0.818513,0.63293 1.237643,0.94128 0.56199,0.43297 1.20141,0.74975 1.76445,1.18375 1.22763,0.80453 2.43348,1.64239 3.73027,2.33647 0.87451,0.51069 1.7159,1.08073 2.62973,1.52112 0,0 -2.90276,1.07984 -2.90276,1.07984 z"
       inkscape:connector-curvature="0" />
    <path
       style="fill:#39275b;fill-opacity:1;stroke:#39275b;stroke-width:2.33757567;stroke-opacity:1"
       id="path3057"
       d="m 183.0005,862.27508 c 0.23775,0.78119 0.36199,1.59036 0.42704,2.40251 0.0549,0.69937 -0.001,1.39487 -0.12139,2.08353 -0.0926,0.48513 -0.21124,0.96481 -0.33561,1.44261 -0.11848,0.46718 -0.21911,0.93682 -0.399,1.38494 -0.17892,0.39305 -0.32222,0.79954 -0.45111,1.21118 -0.13128,0.44966 -0.24251,0.90486 -0.35579,1.35933 -0.13242,0.40473 -0.15183,0.82666 -0.19015,1.24679 -0.0588,0.4823 0.0273,0.95473 0.12889,1.42447 0.0999,0.48615 0.24375,0.9601 0.35447,1.44406 0.0742,0.41331 0.11338,0.83415 0.14548,1.25312 0.0606,0.39964 0.0798,0.80031 0.0121,1.19948 -0.0959,0.31695 -0.3319,0.55146 -0.56397,0.77527 -0.87003,0.79028 -3.17757,2.29332 -3.56516,0.87484 -0.0267,-0.0978 -0.0238,-0.20131 -0.0358,-0.30197 -0.0234,-0.92854 0.13712,-1.84624 0.30823,-2.75482 0.20841,-0.95191 0.44955,-1.88987 0.43373,-2.86988 -0.0264,-0.84058 -0.2999,-1.6388 -0.4916,-2.44933 -0.0845,-0.58371 -0.12786,-1.16855 -0.24715,-1.74639 -0.0943,-0.42845 -0.0683,-0.86718 -0.0738,-1.30232 -0.01,-0.60259 -9.9e-4,-1.20325 -0.0306,-1.80555 -0.0147,-0.53479 -0.0553,-1.08767 0.13045,-1.59803 0.64485,-1.1554 2.605,-1.6392 3.58133,-0.77121 0.13132,0.11691 0.26144,0.29768 0.3679,0.43464 0.35759,0.64762 0.56072,1.36418 0.77272,2.06885 0.23082,0.59433 0.42363,1.20195 0.62436,1.80679 0.21302,0.58198 0.40564,1.17377 0.52401,1.7827 0.0499,0.45018 0.23299,0.8304 0.51215,1.17946 0.36289,0.40709 0.36855,0.95722 0.30165,1.46867 -0.0853,0.56376 -0.46855,0.9739 -0.81088,1.40039 -0.31002,0.37763 -0.62338,0.74824 -0.86845,1.17213 -0.21592,0.40114 -0.33002,0.84333 -0.51178,1.2592 -0.18018,0.37682 -0.31872,0.77018 -0.44058,1.16902 -0.0601,0.37755 -0.2754,0.64462 -0.51404,0.92387 -0.26967,0.22451 -0.48749,0.49929 -0.73507,0.74516 -0.31284,0.24498 -0.55711,0.55896 -0.84001,0.8337 -1.02173,0.72091 -0.23154,0.18752 -3.2555,1.00862 -0.12562,0.0342 -0.27338,-0.0294 -0.35938,-0.11676 -0.15681,-0.15957 -0.15045,-0.28171 -0.19969,-0.49415 -0.0637,-0.82866 0.11963,-1.48295 0.55196,-2.1852 0.73056,-0.97911 1.88797,-1.37769 2.96861,-1.84462 1.24099,-0.45654 2.48746,-0.8999 3.73995,-1.32422 0.50067,-0.1502 0.96374,-0.38381 1.34911,-0.73787 0.21084,-0.22043 0.028,-0.45668 -0.0349,-0.71161 -0.0806,-0.39639 -0.031,-0.77254 0.1391,-1.13515 0.19807,-0.35663 0.4895,-0.63863 0.81832,-0.8736 0.35799,-0.1672 0.67249,-0.40182 0.95869,-0.67162 0.23414,-0.29079 0.57384,-0.44967 0.88429,-0.64242 0.40017,-0.26466 0.74599,-0.59975 1.11845,-0.89981 0.46054,-0.29692 0.83156,-0.7006 1.25422,-1.04372 0.33865,-0.26402 0.67461,-0.53402 1.03693,-0.76518 0.35713,-0.19429 0.59043,-0.49873 0.82218,-0.8211 0.18408,-0.35468 0.48055,-0.62281 0.71784,-0.93805 0.1845,-0.32952 0.35496,-0.66032 0.58078,-0.96481 0.29425,-0.41197 0.6587,-0.76523 1.02241,-1.11476 0.34804,-0.36714 0.7593,-0.65902 1.17791,-0.9384 0.47702,-0.31762 0.9638,-0.62017 1.45224,-0.91984 0.41603,-0.26468 0.77927,-0.59484 1.20597,-0.8434 0.44675,-0.20007 0.87076,-0.44563 1.29718,-0.68506 0.48558,-0.21338 0.76861,-0.58811 1.03107,-1.02756 0.0868,-0.15836 0.21143,-0.30212 0.2677,-0.47651 0.0185,-0.0525 0.0295,-0.22351 -0.037,-0.0308 -0.0322,0.0426 -0.15146,0.13976 -0.0993,0.12698 0.89583,-0.21916 1.7726,-0.51 2.66198,-0.75394 0.13604,-0.0374 -0.26786,0.0891 -0.40153,0.13381 -0.69752,0.23448 -1.37683,0.49881 -2.05871,0.7758 -2.15581,0.77701 -4.22639,1.73571 -6.19795,2.9015 -1.26902,0.77904 -2.48576,1.65054 -3.54514,2.69974 -0.46479,0.49895 -0.83807,1.07084 -1.27453,1.59343 -0.49888,0.59313 -0.99562,1.18857 -1.50358,1.77394 -0.46739,0.60725 -1.02807,1.13426 -1.49699,1.73929 -0.27941,0.39978 -0.41585,0.85822 -0.70932,1.24903 -0.4111,0.42938 -0.81856,0.86143 -1.2142,1.30536 -1.28417,1.27478 -0.35517,0.63505 -3.63256,1.04779 0.41503,-0.37186 0.87061,-0.70139 1.33335,-1.01165 0.45062,-0.30145 0.92861,-0.55951 1.37448,-0.86784 0.35211,-0.26737 0.6534,-0.59093 1.02223,-0.83626 0.33378,-0.19429 0.67111,-0.39265 0.97766,-0.6285 0.32553,-0.34219 0.71899,-0.60134 1.09197,-0.88647 0.18222,-0.17331 0.74763,-0.50236 0.81111,-0.73947 3.98727,-0.64387 3.38024,-0.71532 1.96122,0.31048 -0.66751,0.48254 -1.32773,0.97435 -1.98646,1.46877 -0.73085,0.61092 -1.52736,1.16343 -2.11601,1.92174 -0.0423,0.0673 -0.0847,0.13447 -0.1272,0.20174 -0.0271,0.0507 -0.0498,0.10319 -0.0792,0.15227 -0.0445,0.0736 0.10957,-0.2722 0.025,-0.25636 -1.84482,0.34669 -3.70669,1.17939 -2.3602,0.59162 1.0688,-0.54847 2.18534,-0.98773 3.30349,-1.42233 0.61532,-0.23923 1.20044,-0.53587 1.5755,-1.09322 0.20874,-0.37059 0.2755,-0.79493 0.40446,-1.19513 0.18331,-0.48676 0.51925,-0.85604 0.90193,-1.19429 0.41477,-0.36655 0.8993,-0.61683 1.40128,-0.83828 0.45541,-0.15971 0.89123,-0.3596 1.32997,-0.55848 0.41885,-0.13895 0.64663,-0.50888 0.90227,-0.84132 0.26667,-0.34876 0.50971,-0.71448 0.77416,-1.06514 0.30561,-0.39572 0.57951,-0.81582 0.84189,-1.24123 0.21507,-0.39892 0.50465,-0.73348 0.81664,-1.05681 0.21551,-0.2275 0.44095,-0.44534 0.65149,-0.67757 0,0 3.04445,-0.56384 3.04445,-0.56384 l 0,0 c -0.18777,0.2565 -0.41777,0.48144 -0.65067,0.69392 -0.28259,0.33339 -0.63668,0.59493 -0.8354,0.99808 -0.25213,0.43917 -0.54014,0.85899 -0.83333,1.27123 -0.25967,0.35735 -0.52967,0.70606 -0.7711,1.07632 -0.2848,0.34224 -0.49398,0.75925 -0.87529,1.00354 -0.4622,0.14393 -0.86095,0.44076 -1.34126,0.54422 -0.49106,0.21594 -1.00421,0.39729 -1.41268,0.75957 -0.38661,0.27555 -0.70742,0.60042 -0.92959,1.02351 -0.15714,0.4096 -0.20379,0.85439 -0.39153,1.2545 -0.34534,0.65757 -0.91829,1.03982 -1.60684,1.30438 -1.10327,0.43111 -2.21967,0.83243 -3.26957,1.38753 -1.19767,0.70092 -0.9095,0.56809 -3.51088,1.10389 -0.1458,0.0301 -0.23875,-0.28453 -0.21799,-0.38409 0.0291,-0.14974 0.19925,-0.24933 0.21705,-0.40296 0.57778,-0.82993 1.43205,-1.38262 2.19595,-2.02681 0.65403,-0.48675 1.30926,-0.97254 1.95914,-1.46477 0.17256,-0.13068 0.34276,-0.26456 0.51361,-0.39752 0.11662,-0.0907 0.2048,-0.24072 0.34876,-0.27363 1.06798,-0.24381 2.16044,-0.36391 3.24067,-0.54586 -0.0173,-0.009 -0.0339,-0.0301 -0.0516,-0.0221 -0.32305,0.13411 -0.45991,0.5906 -0.81175,0.69671 -0.35223,0.30274 -0.76142,0.52833 -1.08242,0.86522 -0.27555,0.29743 -0.63907,0.47831 -0.97121,0.70406 -0.41134,0.17732 -0.69873,0.50119 -1.03255,0.79084 -0.42555,0.35333 -0.92815,0.58055 -1.37848,0.89913 -0.46952,0.26424 -0.89446,0.60834 -1.31638,0.93912 -1.05663,0.18665 -2.11637,0.35637 -3.16984,0.55994 -0.0309,0.007 0.057,0.0457 0.0866,0.036 0.20205,-0.0682 0.38987,-0.51076 0.62261,-0.56887 0.40173,-0.4318 0.77645,-0.89032 1.21739,-1.28433 0.10295,-0.123 0.23222,-0.22696 0.31236,-0.36583 0.15178,-0.26289 0.1786,-0.63915 0.40173,-0.87493 0.45698,-0.63634 1.06299,-1.13886 1.52555,-1.77187 0.51612,-0.56287 0.96965,-1.18206 1.47522,-1.75501 0.0621,-0.0783 0.12423,-0.15623 0.18662,-0.23445 0.0642,-0.0684 0.13408,-0.13182 0.19257,-0.20519 0.31352,-0.39363 0.57783,-0.83024 0.9332,-1.19147 1.07688,-1.09512 2.33495,-1.98473 3.6396,-2.78997 1.95086,-1.17908 4.00207,-2.15957 6.1465,-2.93743 0.77009,-0.32738 1.5466,-0.67991 2.3506,-0.91952 3.23066,-0.96289 2.14329,-1.24673 3.39993,-0.87554 0.25813,0.35783 0.13465,0.68721 -0.1089,1.02668 -0.29956,0.441 -0.49579,0.94296 -1.01419,1.18393 -0.43317,0.22406 -0.83881,0.50031 -1.28603,0.69462 -0.4643,0.18964 -0.81941,0.5176 -1.21904,0.81063 -0.47595,0.3184 -0.9793,0.59428 -1.45796,0.9089 -0.39813,0.28889 -0.82412,0.53276 -1.17976,0.87808 -0.32938,0.3655 -0.7375,0.66091 -1.01929,1.07144 -0.22108,0.30504 -0.4534,0.59389 -0.58403,0.95367 -0.21123,0.34479 -0.52366,0.58923 -0.72008,0.93975 -0.22405,0.34494 -0.44245,0.71258 -0.79907,0.93566 -0.35023,0.24968 -0.72828,0.46265 -1.05278,0.74963 -0.44852,0.32062 -0.79929,0.73779 -1.25389,1.05012 -0.40091,0.26299 -0.72612,0.62346 -1.10607,0.9163 -0.29455,0.19652 -0.6102,0.35046 -0.89105,0.55986 -0.25007,0.32269 -0.58964,0.58986 -0.95039,0.77766 -0.34608,0.12931 -0.62502,0.40878 -0.83795,0.70592 -0.20402,0.27044 -0.25699,0.56894 -0.19393,0.90295 0.0849,0.34537 0.29331,0.65495 0.0998,1.00533 -0.34055,0.4489 -0.85514,0.72725 -1.38164,0.90519 -1.27301,0.40355 -2.52342,0.87627 -3.7887,1.30329 -0.95457,0.40906 -0.38586,0.16037 -1.28968,0.56638 -0.30326,0.13613 -0.69712,0.29399 -0.97725,0.4838 -0.249,0.1687 -0.46212,0.40322 -0.67218,0.61522 -0.4687,0.62736 -0.61445,1.14733 -0.57551,1.92963 0.0401,0.16563 0.0526,0.21382 0.23364,0.18616 0.0559,-0.008 0.21995,-0.053 0.16584,-0.037 -2.51396,0.75693 -3.72856,1.06932 -2.61695,0.78163 0.3464,-0.19613 0.52657,-0.57308 0.8451,-0.8117 0.27799,-0.21538 0.46218,-0.50676 0.73028,-0.73448 0.25393,-0.18467 0.49099,-0.45387 0.55633,-0.76573 0.11962,-0.41187 0.2494,-0.82175 0.43352,-1.21021 0.19595,-0.41968 0.32317,-0.86044 0.51311,-1.2831 0.23047,-0.44803 0.51708,-0.84961 0.85778,-1.2212 0.30332,-0.4011 0.72495,-0.74769 0.84817,-1.2513 0.0915,-0.44502 0.0729,-0.87725 -0.24964,-1.22597 -0.27895,-0.40054 -0.48452,-0.82662 -0.5382,-1.31918 -0.10252,-0.59758 -0.29353,-1.17491 -0.50695,-1.74142 -0.20813,-0.60639 -0.38255,-1.22319 -0.61328,-1.82171 -0.19558,-0.66684 -0.38918,-1.34807 -0.75477,-1.94505 -0.12658,-0.14263 -0.18361,-0.22886 -0.34315,-0.33019 -0.0553,-0.0355 -0.11411,-0.0688 -0.17769,-0.0845 -0.0463,-0.0132 -0.18967,0.0197 -0.14411,0.005 2.65117,-0.85395 3.77429,-0.95086 2.67376,-0.84774 -0.30826,0.38801 -0.17155,0.98452 -0.19796,1.44476 0.0291,0.60358 0.0361,1.20568 0.0582,1.80892 0.007,0.41774 -0.0282,0.8375 0.0497,1.25089 0.11083,0.57776 0.16578,1.15909 0.23033,1.74371 0.17515,0.83559 0.44891,1.65444 0.4858,2.51449 0.0212,1.0019 -0.19047,1.96418 -0.42769,2.93328 -0.16847,0.87301 -0.33312,1.76021 -0.28188,2.65328 0.005,0.0583 0.003,0.11856 0.0177,0.17546 0.005,0.009 0.0331,-0.0169 0.0249,-0.013 -5.78628,1.69307 -3.17418,1.36015 -2.48576,0.55714 0.25058,-0.1382 0.41374,-0.36422 0.61017,-0.56713 0.12274,-0.35603 0.0609,-0.74209 0.0115,-1.10771 -0.0231,-0.40395 -0.0608,-0.80937 -0.12265,-1.20861 -0.11139,-0.48485 -0.24994,-0.96103 -0.35156,-1.44784 -0.1111,-0.49951 -0.20473,-1.00088 -0.16184,-1.51523 0.0436,-0.43384 0.043,-0.87387 0.18159,-1.29213 0.11517,-0.4583 0.23056,-0.91659 0.35656,-1.37209 0.11794,-0.42483 0.25716,-0.84377 0.44213,-1.24473 0.19205,-0.43121 0.30846,-0.87963 0.41249,-1.34024 0.11769,-0.47467 0.24536,-0.94699 0.34807,-1.42523 0.13178,-0.66309 0.21162,-1.33518 0.16986,-2.01287 -0.0596,-0.78253 -0.16862,-1.5746 -0.45316,-2.31049 0,0 2.9719,-0.87292 2.9719,-0.87292 z"
       inkscape:connector-curvature="0" />
    <path
       sodipodi:type="arc"
       style="fill:#ffffff;fill-opacity:1;stroke:#000000;stroke-opacity:1"
       id="path3829"
       sodipodi:cx="164.28572"
       sodipodi:cy="765.2193"
       sodipodi:rx="84.285713"
       sodipodi:ry="84.285713"
       d="m 248.57143,765.2193 c 0,46.54971 -37.736,84.28571 -84.28571,84.28571 -46.54971,0 -84.285712,-37.736 -84.285712,-84.28571 0,-46.54971 37.736002,-84.28571 84.285712,-84.28571 46.54971,0 84.28571,37.736 84.28571,84.28571 z"
       transform="matrix(0.97029572,0.2419219,-0.2419219,0.97029572,82.168524,90.30961)" />
  </g>
</svg>
