<?xml version="1.0" encoding="UTF-8"?>
<!DOCTYPE svg PUBLIC "-//W3C//DTD SVG 1.1//EN" "http://www.w3.org/Graphics/SVG/1.1/DTD/svg11.dtd">
<svg version="1.1" xmlns="http://www.w3.org/2000/svg" xmlns:xlink="http://www.w3.org/1999/xlink" x="0px" y="0px" width="776.773" height="728.738" viewBox="0, 0, 776.773, 728.738">
  <g id="Layer 1">
    <g>
      <path d="M246.446,603.945 C244.503,572.492 234.927,547.468 216.587,525.914 C200.721,507.268 187.288,498.439 159.224,488.212 L141.028,481.581 L285.384,352.693 L429.741,223.805 L442.005,159.862 L454.269,95.919 L520.391,52.608 C556.759,28.788 587.958,8.836 589.723,8.273 C592.104,7.512 617.28,34.021 632.477,53.29 C632.812,53.715 614.118,72.461 590.933,94.948 C567.749,117.435 544.286,140.287 538.792,145.73 L528.805,155.625 L565.086,198.747 C585.041,222.465 603.157,243.659 605.343,245.845 C608.305,248.808 625.003,240.414 670.866,212.905 L732.413,175.989 L751.506,211.31 L770.6,246.63 L724.889,290.264 L679.178,333.899 L618.037,337.478 L556.897,341.058 L405.542,473.609 C322.296,546.512 252.538,607.17 250.523,608.404 C248.319,609.753 246.695,607.977 246.446,603.945 L246.446,603.945 z" fill="#FFFFFF"/>
      <path d="M246.446,603.945 C244.503,572.492 234.927,547.468 216.587,525.914 C200.721,507.268 187.288,498.439 159.224,488.212 L141.028,481.581 L285.384,352.693 L429.741,223.805 L442.005,159.862 L454.269,95.919 L520.391,52.608 C556.759,28.788 587.958,8.836 589.723,8.273 C592.104,7.512 617.28,34.021 632.477,53.29 C632.812,53.715 614.118,72.461 590.933,94.948 C567.749,117.435 544.286,140.287 538.792,145.73 L528.805,155.625 L565.086,198.747 C585.041,222.465 603.157,243.659 605.343,245.845 C608.305,248.808 625.003,240.414 670.866,212.905 L732.413,175.989 L751.506,211.31 L770.6,246.63 L724.889,290.264 L679.178,333.899 L618.037,337.478 L556.897,341.058 L405.542,473.609 C322.296,546.512 252.538,607.17 250.523,608.404 C248.319,609.753 246.695,607.977 246.446,603.945 L246.446,603.945 z" fill-opacity="0" stroke="#FFFFFF" stroke-width="2.338"/>
    </g>
    <g>
      <path d="M124.346,728.738 C55.671,728.738 -0,673.067 -0,604.392 C-0,535.718 55.671,480.047 124.346,480.047 C193.02,480.047 248.691,535.718 248.691,604.392 C248.691,673.067 193.02,728.738 124.346,728.738 z M124.346,694.718 C174.231,694.718 214.672,654.278 214.672,604.392 C214.672,554.507 174.231,514.067 124.346,514.067 C74.46,514.067 34.02,554.507 34.02,604.392 C34.02,654.278 74.46,694.718 124.346,694.718 z" fill="#FFFFFF"/>
      <path d="M124.346,728.738 C55.671,728.738 -0,673.067 -0,604.392 C-0,535.718 55.671,480.047 124.346,480.047 C193.02,480.047 248.691,535.718 248.691,604.392 C248.691,673.067 193.02,728.738 124.346,728.738 z M124.346,694.718 C174.231,694.718 214.672,654.278 214.672,604.392 C214.672,554.507 174.231,514.067 124.346,514.067 C74.46,514.067 34.02,554.507 34.02,604.392 C34.02,654.278 74.46,694.718 124.346,694.718 z" fill-opacity="0" stroke="#FFFFFF" stroke-width="2.338"/>
    </g>
  </g>
  <defs/>
</svg>
