<?xml version="1.0" encoding="UTF-8"?>
<!DOCTYPE svg PUBLIC "-//W3C//DTD SVG 1.1//EN" "http://www.w3.org/Graphics/SVG/1.1/DTD/svg11.dtd">
<svg version="1.1" xmlns="http://www.w3.org/2000/svg" xmlns:xlink="http://www.w3.org/1999/xlink" x="0px" y="0px" width="76" height="76" viewBox="0, 0, 76, 76">
  <g id="Layer 1">
    <path d="M19,19 C39.987,19 57,36.013 57,57 L49.083,57 C49.083,40.385 35.969,26.917 19.792,26.917 L19,26.927 L19,19 z M19,31.667 C32.991,31.667 44.333,43.009 44.333,57 L36.417,57 C36.417,47.381 28.619,39.583 19,39.583 L19,31.667 z M24.542,45.917 C27.602,45.917 30.083,48.398 30.083,51.458 C30.083,54.519 27.602,57 24.542,57 C21.481,57 19,54.519 19,51.458 C19,48.398 21.481,45.917 24.542,45.917 z" fill="#FFFFFF"/>
  </g>
  <defs/>
</svg>
